<svg aria-hidden="true" style="width:0;height:0;position:absolute;overflow:hidden" xmlns="http://www.w3.org/2000/svg"><defs><symbol id="icon-bicycle" viewBox="0 0 32 32"><path d="M25.188 12.515c-.827 0-1.614.168-2.33.471l.039-.015-3.827-7.585h1.049a.475.475 0 0 0 0-.95h-3.485a.475.475 0 0 0 0 .95h1.369l2.24 4.436H11.09a.474.474 0 0 0-.42.254l-.001.003-1.527 2.912a5.914 5.914 0 0 0-2.334-.471 6.02 6.02 0 1 0 5.965 6.839l.003-.031h3.423a.474.474 0 0 0 .422-.257l.001-.003 4.144-8.209 1.286 2.535c-1.733 1.077-2.869 2.971-2.869 5.13a6.02 6.02 0 1 0 6.02-6.02h-.015.001zM6.812 23.604a5.069 5.069 0 1 1 1.935-9.758l-.034-.012-2.512 4.8a.475.475 0 0 0 .422.694h5.19c-.396 2.436-2.483 4.273-4.999 4.277zm2.731-9.347a5.077 5.077 0 0 1 2.329 4.111v.008H7.405zm6.359 4.119h-3.08a6.02 6.02 0 0 0-2.826-4.934l-.025-.015 1.394-2.655h8.38zm9.286 5.228a5.07 5.07 0 0 1-2.713-9.334l.02-.012 2.348 4.651a.476.476 0 0 0 .836-.308.466.466 0 0 0-.017-.125l.001.003-2.335-4.654a5.069 5.069 0 1 1 1.871 9.78h-.012.001z"/><path d="M8.713 8.554h4.436a.475.475 0 0 0 0-.95H8.713a.475.475 0 0 0 0 .95z"/></symbol><symbol id="icon-compass" viewBox="0 0 32 32"><path d="M16 0C7.163 0 0 7.163 0 16s7.163 16 16 16 16-7.163 16-16S24.837 0 16 0zM3 16C3 8.82 8.82 3 16 3c3.424 0 6.538 1.325 8.86 3.488L12 12 6.488 24.86A12.952 12.952 0 0 1 3 16zm15.286 2.286-8.003 3.43 3.43-8.003 4.573 4.573zM16 29a12.955 12.955 0 0 1-8.86-3.488L20 20l5.512-12.86A12.952 12.952 0 0 1 29 16c0 7.18-5.82 13-13 13z"/></symbol><symbol id="icon-machine" viewBox="0 0 32 32"><path d="M7.04 11.418h-.256l1.818 6.963h2.381l-1.971-7.552a3.716 3.716 0 0 1-1.971.589zM16.896 5.094a3.416 3.416 0 0 1-.845-2.15L9.83 5.402c.486.589.794 1.331.845 2.15zM20.838 6.221c-.358.128-.742.179-1.152.179s-.794-.077-1.152-.179v3.942l-2.56 2.534a.854.854 0 0 0-.128 1.05l1.306 2.074a.85.85 0 0 0 .717.41c.154 0 .307-.051.461-.128a.86.86 0 0 0 .256-1.178l-.947-1.51 2.022-2.022 2.048 2.022-.947 1.51c-.256.384-.128.922.256 1.178a.883.883 0 0 0 .461.128.795.795 0 0 0 .717-.41l1.306-2.074a.854.854 0 0 0-.128-1.05l-2.56-2.534V6.221zM9.139 7.757a2.1 2.1 0 1 1-4.199 0 2.1 2.1 0 0 1 4.199 0zM19.686 4.864c1.152 0 2.099-.947 2.099-2.099S20.838.666 19.686.666c-1.152 0-2.099.947-2.099 2.099s.922 2.099 2.099 2.099zM25.293 19.891H6.707c-1.408 0-2.534 1.126-2.534 2.534s1.126 2.534 2.534 2.534h18.56a2.523 2.523 0 0 0 2.534-2.534c.026-1.383-1.126-2.534-2.509-2.534zM6.707 23.603c-.64 0-1.178-.538-1.178-1.178 0-.666.538-1.178 1.178-1.178s1.178.538 1.178 1.178c.026.64-.512 1.178-1.178 1.178zm3.738 0a1.175 1.175 0 0 1-1.178-1.178c0-.666.538-1.178 1.178-1.178s1.178.538 1.178 1.178c-.026.64-.538 1.178-1.178 1.178zm3.686 0c-.64 0-1.178-.538-1.178-1.178 0-.666.538-1.178 1.178-1.178.666 0 1.178.538 1.178 1.178.026.64-.512 1.178-1.178 1.178zm3.738 0c-.64 0-1.178-.538-1.178-1.178 0-.666.538-1.178 1.178-1.178s1.178.538 1.178 1.178-.538 1.178-1.178 1.178zm3.712 0a1.175 1.175 0 0 1-1.178-1.178c0-.666.538-1.178 1.178-1.178s1.178.538 1.178 1.178-.538 1.178-1.178 1.178zm3.712 0c-.64 0-1.178-.538-1.178-1.178 0-.666.538-1.178 1.178-1.178s1.178.538 1.178 1.178c0 .64-.538 1.178-1.178 1.178z"/></symbol><symbol id="icon-repair" viewBox="0 0 32 32"><path d="M31.342 25.559 16.95 13.223A9 9 0 0 0 6.387.387l5.2 5.2a2.005 2.005 0 0 1 0 2.828l-3.172 3.172a2.005 2.005 0 0 1-2.828 0l-5.2-5.2A9 9 0 0 0 13.223 16.95l12.336 14.392a1.828 1.828 0 0 0 2.716.104l3.172-3.172c.778-.778.731-2-.104-2.716z"/></symbol><symbol id="icon-search" viewBox="0 0 32 32"><path d="M26 13c0 2.869-.931 5.519-2.5 7.669l7.913 7.919c.781.781.781 2.05 0 2.831s-2.05.781-2.831 0L20.67 23.5c-2.15 1.575-4.8 2.5-7.669 2.5-7.181 0-13-5.819-13-13s5.819-13 13-13 13 5.819 13 13zm-13 9c4.971 0 9-4.029 9-9s-4.029-9-9-9-9 4.029-9 9 4.029 9 9 9z"/></symbol><symbol id="icon-worker" viewBox="0 0 32 32"><path d="m25.114 23.91-.614-2.355c-.41-1.638-1.766-2.816-3.43-3.046l-1.485-.23-.435-1.28a6.316 6.316 0 0 0 2.458-3.661c.41-.205 1.101-.768 1.101-2.176 0-1.024-.179-1.638-.512-1.971-.077-.077-.179-.102-.256-.179-.026-.205-.051-.41-.102-.614h-1.818c.102 1.05.205 2.176.205 2.176 0 .128.102.282.256.282h.691c.128 0 .256-.614.256-.794h.154c.077.179.128.461.128 1.101 0 1.152-.589 1.357-.666 1.357-.205.051-.358.205-.384.384-.461 2.406-2.406 4.147-4.71 4.147-2.253 0-4.224-1.741-4.659-4.147-.051-.205-.205-.358-.384-.384-.077-.026-.666-.205-.666-1.357 0-.614.077-.922.128-1.101h.154c0 .179.128.794.256.794h.691c.154 0 .256-.128.256-.282 0 0 .077-1.152.205-2.176H10.14c-.051.205-.077.41-.102.614-.077.051-.179.077-.23.154-.384.358-.538.947-.538 1.997 0 1.408.691 1.971 1.101 2.176.358 1.562 1.254 2.842 2.458 3.661l-.435 1.28-1.485.205c-1.664.23-3.021 1.408-3.43 3.046l-.614 2.355a.78.78 0 0 0 .154.742c.154.205.41.307.666.307h16.589c.256 0 .512-.102.666-.307a.692.692 0 0 0 .179-.717zm-11.828-5.12.435-1.28c.717.307 1.485.538 2.304.538.794 0 1.562-.205 2.278-.538l.435 1.28c-1.638 1.178-3.84 1.178-5.453 0z"/><path d="M15.078 10.778a.845.845 0 1 1-1.69 0 .845.845 0 0 1 1.69 0zM18.611 10.778a.845.845 0 1 1-1.69 0 .845.845 0 0 1 1.69 0zM16 14.925c.717 0 1.382-.256 1.741-.691a.355.355 0 0 0-.026-.486.355.355 0 0 0-.486.026c-.461.538-1.971.538-2.432 0-.128-.154-.333-.154-.486-.026s-.154.333-.026.486c.333.41.998.691 1.715.691zM10.214 7.834h11.571c.23 0 .435-.205.435-.435v-.461c0-.461-.282-.87-.691-1.024-.307-1.869-1.51-3.379-3.174-4.147l-.461 2.125a.431.431 0 0 1-.41.333h-.077c-.23-.051-.358-.282-.307-.512l.538-2.33a.938.938 0 0 0-.922-.717h-1.357a.961.961 0 0 0-.922.691l.538 2.355c.051.23-.077.435-.307.512h-.102c-.205 0-.358-.128-.41-.333l-.486-2.125a5.576 5.576 0 0 0-3.174 4.147 1.135 1.135 0 0 0-.666 1.024v.461a.378.378 0 0 0 .384.435z"/></symbol><symbol id="icon-facebook" viewBox="0 0 32 32"><path d="M21.329 5.313h2.921V.225C23.746.156 22.013 0 19.994 0c-4.212 0-7.097 2.649-7.097 7.519V12H8.249v5.688h4.648V32h5.699V17.689h4.46l.708-5.688h-5.169V8.082c.001-1.644.444-2.769 2.735-2.769z"/></symbol><symbol id="icon-instagram" viewBox="0 0 32 32"><path d="M31.969 9.408c-.075-1.7-.35-2.869-.744-3.882a7.803 7.803 0 0 0-1.85-2.838A7.867 7.867 0 0 0 26.543.844C25.524.45 24.361.175 22.661.1 20.948.019 20.404 0 16.06 0s-4.888.019-6.595.094c-1.7.075-2.869.35-3.882.744a7.803 7.803 0 0 0-2.838 1.85A7.867 7.867 0 0 0 .901 5.52C.507 6.539.232 7.702.157 9.402c-.081 1.713-.1 2.257-.1 6.601s.019 4.888.094 6.595c.075 1.7.35 2.869.744 3.882a7.895 7.895 0 0 0 1.85 2.838 7.867 7.867 0 0 0 2.832 1.844c1.019.394 2.182.669 3.882.744 1.706.075 2.25.094 6.595.094s4.888-.019 6.595-.094c1.7-.075 2.869-.35 3.882-.744a8.181 8.181 0 0 0 4.682-4.682c.394-1.019.669-2.182.744-3.882.075-1.707.094-2.25.094-6.595s-.006-4.888-.081-6.595zm-2.882 13.065c-.069 1.563-.331 2.407-.55 2.969a5.31 5.31 0 0 1-3.038 3.038c-.563.219-1.413.481-2.969.55-1.688.075-2.194.094-6.464.094s-4.782-.019-6.464-.094c-1.563-.069-2.407-.331-2.969-.55a4.926 4.926 0 0 1-1.838-1.194 4.974 4.974 0 0 1-1.194-1.838c-.219-.563-.481-1.413-.55-2.969-.075-1.688-.094-2.194-.094-6.464s.019-4.782.094-6.464c.069-1.563.331-2.407.55-2.969a4.868 4.868 0 0 1 1.2-1.838A4.974 4.974 0 0 1 6.639 3.55c.563-.219 1.413-.481 2.969-.55 1.688-.075 2.194-.094 6.464-.094 4.276 0 4.782.019 6.464.094 1.563.069 2.407.331 2.969.55a4.914 4.914 0 0 1 1.838 1.194 4.974 4.974 0 0 1 1.194 1.838c.219.563.481 1.413.55 2.969.075 1.688.094 2.194.094 6.464s-.019 4.77-.094 6.458z"/><path d="M16.059 7.783c-4.538 0-8.22 3.682-8.22 8.22s3.682 8.22 8.22 8.22 8.22-3.682 8.22-8.22-3.682-8.22-8.22-8.22zm0 13.552a5.333 5.333 0 0 1 0-10.664 5.333 5.333 0 0 1 0 10.664zM26.524 7.457a1.919 1.919 0 1 1-3.838 0 1.919 1.919 0 0 1 3.838 0z"/></symbol><symbol id="icon-telegram" viewBox="0 0 34 32"><path d="M31.246 1.679c-.406.03-.804.125-1.179.282h-.005c-.36.143-2.072.863-4.674 1.954l-9.325 3.927c-6.691 2.817-13.268 5.591-13.268 5.591l.078-.03s-.453.149-.927.474c-.293.186-.544.43-.74.716-.232.341-.419.863-.35 1.402.114.912.705 1.459 1.129 1.761.429.306.839.448.839.448h.01l6.168 2.078c.277.888 1.88 6.158 2.265 7.372.227.725.448 1.178.725 1.525.134.177.291.325.479.443.098.057.202.102.311.134l-.063-.015c.019.005.034.02.048.025.051.014.085.019.149.029.976.296 1.761-.311 1.761-.311l.044-.035 3.642-3.316 6.104 4.682.139.059c1.272.558 2.561.248 3.241-.301.686-.552.952-1.258.952-1.258l.044-.114L33.56 5.038c.134-.596.168-1.155.02-1.696a2.283 2.283 0 0 0-.987-1.323 2.365 2.365 0 0 0-1.348-.341zm-.127 2.589c-.005.08.01.071-.025.224v.014l-4.672 23.912c-.02.034-.054.109-.148.183-.099.078-.177.128-.587-.035l-7.465-5.723-4.51 4.11.947-6.051L26.856 9.534c.503-.467.335-.566.335-.566.035-.573-.759-.168-.759-.168l-15.38 9.528-.005-.025-7.391-2.491a.25.25 0 0 0 .038-.015l.04-.02.039-.014s6.582-2.774 13.273-5.591c3.35-1.411 6.725-2.832 9.321-3.928 1.54-.648 3.081-1.292 4.623-1.933.104-.04.054-.04.129-.04V4.27z"/></symbol><symbol id="icon-location" viewBox="0 0 32 32"><path d="M16 0C10.477 0 6 4.477 6 10c0 10 10 22 10 22s10-12 10-22c0-5.523-4.477-10-10-10zm0 16a6 6 0 1 1 0-12 6 6 0 0 1 0 12z"/></symbol><symbol id="icon-youtube" viewBox="0 0 32 32"><path d="M31.681 9.6s-.313-2.206-1.275-3.175C29.187 5.15 27.825 5.144 27.2 5.069c-4.475-.325-11.194-.325-11.194-.325h-.012s-6.719 0-11.194.325c-.625.075-1.987.081-3.206 1.356C.631 7.394.325 9.6.325 9.6s-.319 2.588-.319 5.181v2.425c0 2.587.319 5.181.319 5.181s.313 2.206 1.269 3.175c1.219 1.275 2.819 1.231 3.531 1.369 2.563.244 10.881.319 10.881.319s6.725-.012 11.2-.331c.625-.075 1.988-.081 3.206-1.356.962-.969 1.275-3.175 1.275-3.175s.319-2.587.319-5.181v-2.425c-.006-2.588-.325-5.181-.325-5.181zM12.694 20.15v-8.994l8.644 4.513-8.644 4.481z"/></symbol><symbol id="icon-closeCross" viewBox="0 0 32 32"><path d="M2.901.844c-.866.324-1.799 1.28-2.076 2.132-.149.46-.092 1.028.16 1.543.197.405.311.524 5.728 5.948l5.525 5.532-5.525 5.532c-5.454 5.461-5.529 5.54-5.733 5.957-.197.407-.206.446-.206.96 0 .501.012.56.176.887a4.05 4.05 0 0 0 1.714 1.714c.327.164.386.176.887.176.514 0 .553-.009.96-.206.418-.204.496-.279 5.957-5.733L16 19.761l5.532 5.525c5.461 5.454 5.54 5.529 5.957 5.733.407.197.446.206.96.206.501 0 .56-.012.887-.176a4.145 4.145 0 0 0 1.273-1.035c.146-.18.343-.485.441-.679.164-.327.176-.386.176-.887 0-.514-.009-.553-.206-.96-.204-.418-.279-.496-5.733-5.957l-5.525-5.532 5.525-5.532c5.454-5.461 5.529-5.54 5.733-5.957.197-.407.206-.446.206-.96 0-.501-.012-.56-.176-.887A4.05 4.05 0 0 0 29.336.949c-.327-.164-.386-.176-.887-.176-.514 0-.553.009-.96.206-.418.204-.496.279-5.957 5.733L16 12.237l-5.532-5.525C5.03 1.283 4.927 1.181 4.516.982c-.37-.18-.473-.206-.88-.222-.356-.012-.526.007-.734.084z"/></symbol><symbol id="icon-cart" viewBox="0 0 32 32"><path d="M12 29a3 3 0 1 1-6 0 3 3 0 0 1 6 0zM32 29a3 3 0 1 1-6 0 3 3 0 0 1 6 0zM32 16V4H8a2 2 0 0 0-2-2H0v2h4l1.502 12.877A4 4 0 0 0 8 24h24v-2H8a2 2 0 0 1-2-2v-.02L32 16z"/></symbol><symbol id="icon-trash" viewBox="0 0 32 32"><path fill="none" stroke="#fff" style="stroke:var(--color1,#fff)" stroke-linejoin="round" stroke-linecap="round" stroke-width="2.909" d="M12 4h8M4 8h24m-2.667 0-.935 14.026c-.14 2.104-.21 3.157-.665 3.954a4 4 0 0 1-1.731 1.619c-.826.4-1.881.4-3.99.4h-4.025c-2.109 0-3.163 0-3.99-.4a4.005 4.005 0 0 1-1.731-1.619c-.455-.798-.525-1.85-.665-3.954L6.666 8m6.667 6v6.667M18.667 14v6.667"/></symbol><symbol id="icon-logo" viewBox="0 0 78 32"><path fill="#137ecb" style="fill:var(--color1,#137ecb)" d="M4.42 4.97v21.867h21.759v1.374H3.069V3.577h6.756V4.97H4.421zM74.046 4.97v21.867H52.287v1.374h23.11V3.577h-6.755V4.97h5.404z"/><path fill="#137ecb" style="fill:var(--color1,#137ecb)" d="M17.013 17.713c0 .831-.254 1.467-.763 1.909s-1.242.663-2.201.662c-.938 0-1.737-.152-2.395-.456v-1.635c.806.434 1.545.651 2.218.651.383 0 .672-.087.866-.261s.292-.411.293-.712c0-.296-.115-.566-.346-.811s-.611-.518-1.142-.818c-.462-.264-.812-.516-1.05-.757a2.653 2.653 0 0 1-.553-.812c-.13-.3-.196-.649-.196-1.046 0-.762.257-1.366.77-1.812s1.202-.669 2.066-.67a5.252 5.252 0 0 1 2.381.572l-.663 1.325a6.887 6.887 0 0 0-.74-.304 2.513 2.513 0 0 0-.829-.134c-.324 0-.574.088-.748.264s-.262.416-.262.72c-.003.292.109.574.313.784.209.223.573.476 1.094.76.703.389 1.193.786 1.47 1.192s.416.868.416 1.388zM28.071 20.162h-2.137l-1.767-3.8-.803.663v3.136h-2.006v-8.887h2.006v4.408l.7-1.331 1.835-3.077h2.144l-2.491 3.848 2.519 5.04zM34.634 14.782l1.436-3.508h2.1l-2.557 5.325v3.563h-1.975v-3.496l-2.549-5.392h2.115l1.43 3.508zM42.369 20.162v-8.889h.722v8.317h3.035v.572h-3.758zM50.627 20.162v-8.889h.722v8.889h-.722zM57.447 20.162h-.722v-8.889h3.921v.571h-3.199v3.769h3.022v.578h-3.022v3.97zM69.022 20.162h-3.906v-8.889h3.906v.571h-3.184v3.373h3.005v.572h-3.005v3.801h3.184v.572zM13.827 5.648h-.197V3.271h-1.025v2.377h-.197v-2.54h1.419v2.54zM16.44 3.838c0 .262-.069.454-.208.577s-.344.184-.616.184h-.208v1.05h-.198v-2.54h.402c.287 0 .496.058.629.175s.199.302.2.554zm-1.033.605h.197c.23 0 .394-.047.49-.141s.145-.249.145-.464c0-.205-.05-.352-.149-.44s-.254-.133-.464-.133h-.219v1.178zM19.235 4.375c0 .42-.073.744-.218.969s-.355.339-.63.339c-.278 0-.488-.114-.631-.341s-.215-.551-.215-.971c0-.438.071-.764.213-.978s.355-.321.64-.32c.273 0 .482.113.625.338s.215.547.216.965zm-1.488 0c0 .378.055.663.164.856s.268.289.476.289c.21 0 .37-.096.479-.287s.164-.477.164-.858c0-.376-.054-.66-.161-.852s-.266-.288-.475-.288c-.216 0-.378.097-.485.291s-.162.477-.163.849h.001zM20.717 4.335l.831-1.227h.213l-.838 1.227.905 1.313h-.227l-.884-1.299v1.299h-.197v-2.54h.197v1.227zM24.002 5.648l-.259-.921h-.714l-.254.921h-.205l.707-2.54h.203l.723 2.54h-.201zm-.306-1.093-.259-.947a3.068 3.068 0 0 1-.062-.302 2.362 2.362 0 0 1-.056.302l-.251.947h.629zM25.753 5.648h-.197V3.271h-.586v-.163h1.369v.163h-.586v2.377zM29.779 3.232c-.221 0-.397.101-.528.303s-.196.482-.196.84a1.87 1.87 0 0 0 .089.608.86.86 0 0 0 .259.398c.11.092.249.141.392.139a1 1 0 0 0 .394-.071v.156a.928.928 0 0 1-.412.078.806.806 0 0 1-.49-.156c-.139-.104-.247-.255-.324-.453s-.115-.432-.114-.704c0-.405.083-.724.25-.956s.394-.347.682-.346a.972.972 0 0 1 .47.108l-.089.148a.782.782 0 0 0-.385-.092zM32.837 5.648h-.197V4.4h-1.025v1.248h-.197v-2.54h.197v1.127h1.025V3.108h.197v2.54zM35.331 5.648l-.259-.921h-.714l-.255.921h-.205l.707-2.54h.203l.723 2.54h-.2zm-.305-1.093-.259-.947a3.41 3.41 0 0 1-.063-.302 2.362 2.362 0 0 1-.056.302l-.251.947h.629zM37.826 3.838c0 .262-.069.454-.208.577s-.344.184-.616.184h-.208v1.05h-.197v-2.54h.402c.286 0 .496.058.629.175s.199.302.199.554zm-1.033.604h.197c.23 0 .394-.047.49-.141s.144-.249.143-.464c0-.205-.05-.352-.149-.44s-.254-.133-.463-.133h-.219v1.178zM39.558 4.538l-.546 1.11h-.223l.585-1.135a.556.556 0 0 1-.346-.23.764.764 0 0 1-.125-.446c0-.486.254-.73.761-.73h.478v2.54h-.199V4.54l-.386-.003zm.387-1.272h-.249c-.209 0-.359.045-.449.134s-.136.233-.136.431c0 .192.042.334.127.424s.219.135.404.134h.304V3.266zM42.234 3.108h.197v1.227l.792-1.227h.213l-.803 1.227.826 1.313h-.221l-.808-1.299v1.299h-.197V4.349l-.804 1.299h-.223l.828-1.313-.803-1.227h.215l.79 1.227V3.108zM45.587 5.648h-1.066v-2.54h1.065v.163h-.868v.964h.82v.164h-.82v1.086h.868v.163zM48.265 5.648h-.197V4.4h-1.024v1.248h-.197v-2.54h.197v1.127h1.024V3.108h.197v2.54zM49.649 3.108h.192V5.001c0 .04-.007.158-.019.359h.016l1.103-2.251h.255v2.539h-.193V3.826c0-.152.008-.304.024-.455h-.016L49.9 5.649h-.251l-.001-2.54zM53.114 4.538l-.547 1.11h-.223l.585-1.135a.556.556 0 0 1-.346-.23.764.764 0 0 1-.124-.446c0-.486.254-.73.761-.73h.478v2.54h-.199V4.54l-.386-.003zm.387-1.272h-.249c-.209 0-.359.045-.449.134s-.135.233-.135.431c0 .192.042.334.126.424s.219.136.404.136h.303V3.267zM56.597 3.108h.193V5.001c0 .04-.007.158-.019.359h.016l1.103-2.251h.256v2.539h-.193V3.826c0-.152.009-.304.025-.455h-.016l-1.111 2.278H56.6l-.001-2.54zM61.043 3.108h.193V5.001c0 .04-.007.158-.019.359h.016l1.103-2.251h.255v2.539h-.193V3.826c0-.152.008-.304.024-.455h-.017l-1.111 2.278h-.251v-2.54zM64.999 3.108v.163h-.828v2.377h-.197v-2.54h1.025zM67.323 3.838c0 .262-.07.454-.209.577s-.344.184-.615.184h-.208v1.05h-.197v-2.54h.402c.287 0 .497.058.629.175s.199.302.199.554zm-1.033.604h.197c.23 0 .394-.047.49-.141s.145-.249.145-.464c0-.205-.05-.352-.149-.44s-.254-.133-.463-.133h-.219l-.001 1.178zM30.226 28.02a.671.671 0 0 1-.711.698c-.234 0-.423-.03-.565-.089v-.184c.083.038.17.065.259.08.101.019.203.029.306.03a.503.503 0 0 0 .369-.148.514.514 0 0 0 .146-.373c0-.14-.034-.251-.102-.333s-.199-.164-.392-.247a1.474 1.474 0 0 1-.339-.192.589.589 0 0 1-.167-.216.717.717 0 0 1-.054-.296.608.608 0 0 1 .336-.561.764.764 0 0 1 .348-.081 1.344 1.344 0 0 1 .53.104l-.076.163a1.095 1.095 0 0 0-.454-.099.496.496 0 0 0-.353.128.446.446 0 0 0-.135.337c0 .143.033.253.099.332s.194.16.387.245c.198.083.343.181.435.293.092.116.14.26.135.408zM31.465 28.685v-2.541h.197v2.54l-.197.001zM34.593 28.685h-.251l-1.111-2.278h-.016c.016.151.024.303.024.455v1.822h-.193v-2.54h.257l1.103 2.251h.012a8.434 8.434 0 0 1-.016-.476v-1.775h.193l-.001 2.541zM36.807 26.269c-.221 0-.397.101-.528.303s-.196.482-.196.84c-.005.206.026.412.089.608a.86.86 0 0 0 .259.398c.11.092.249.141.392.139a1 1 0 0 0 .394-.071v.156a.931.931 0 0 1-.412.078c-.176.003-.348-.052-.489-.156s-.248-.255-.325-.453a1.98 1.98 0 0 1-.115-.703c0-.405.083-.724.25-.956s.394-.348.682-.347a.978.978 0 0 1 .471.108l-.089.149a.78.78 0 0 0-.384-.094zM39.511 28.685h-1.065v-2.541h1.065v.163h-.868v.964h.819v.163h-.82v1.086h.868l.001.164zM43.428 28.685h-1.317v-.136l.595-.775c.182-.24.304-.432.367-.577.064-.154.096-.319.093-.485 0-.137-.041-.245-.123-.325s-.193-.121-.334-.122a.71.71 0 0 0-.45.143l-.107-.13c.083-.056.174-.1.27-.13.097-.027.197-.04.298-.038.202 0 .36.054.472.163s.169.256.169.441c.001.122-.016.243-.049.36a1.649 1.649 0 0 1-.139.33 3.255 3.255 0 0 1-.298.42l-.541.691v.014h1.091l.001.155zM45.815 27.412c0 .43-.054.755-.162.976s-.269.331-.483.33c-.226 0-.39-.102-.491-.306s-.152-.538-.152-1.001c0-.868.214-1.302.643-1.302.222 0 .385.108.489.323s.156.542.156.98zm-1.083 0c0 .382.035.668.106.858s.181.285.332.286c.294 0 .44-.382.44-1.145 0-.76-.146-1.14-.44-1.14-.151 0-.262.094-.332.281s-.106.474-.106.859zM47.765 28.685h-.193v-1.867a7.9 7.9 0 0 1 .016-.492 2.426 2.426 0 0 1-.197.182l-.251.199-.102-.11.565-.452h.161l.001 2.54zM50.588 28.685h-1.316v-.136l.593-.775c.182-.24.305-.432.367-.577.064-.154.096-.319.093-.485 0-.137-.041-.245-.122-.325s-.193-.121-.334-.122a.71.71 0 0 0-.45.143l-.107-.131c.083-.056.174-.1.27-.13.097-.027.197-.04.298-.038.202 0 .359.054.472.163s.169.256.169.441c0 .122-.016.243-.05.36-.034.115-.08.225-.139.33a3.255 3.255 0 0 1-.298.42l-.541.691v.014h1.091l.002.155z"/></symbol><symbol id="icon-snow" viewBox="0 0 31 32"><path d="m30.556 20.678-3.772.64-4.356-2.501L28.855 16l-6.426-2.818 4.355-2.5 3.772.64.348-2.027-2.911-.494 1.025-2.754-1.939-.714-1.329 3.568-4.355 2.5.759-6.942-5.668 4.126V4.241l2.444-2.929-1.591-1.313-1.887 2.26-1.887-2.26-1.591 1.313 2.444 2.928v4.344L8.752 4.459l.759 6.943-4.358-2.501-1.329-3.568-1.939.714L2.91 8.801l-2.912.494.348 2.026 3.772-.64 4.356 2.5-6.425 2.818 6.426 2.816-4.357 2.501-3.772-.64-.348 2.026 2.912.494-1.026 2.754 1.939.714 1.329-3.568 4.357-2.501-.759 6.942 5.666-4.124v4.344l-2.444 2.928 1.591 1.313 1.887-2.26 1.887 2.26 1.591-1.313-2.445-2.929v-4.344l5.668 4.125-.759-6.94 4.354 2.5 1.329 3.568 1.939-.714-1.025-2.756 2.911-.494-.348-2.026zm-6.827-4.677-3.52 1.542-2.689-1.542 2.689-1.544 3.52 1.544zm-4.137-7.127-.417 3.802-2.689 1.544v-3.086l3.105-2.26zm-8.276 0 3.102 2.258v3.088l-2.686-1.542-.416-3.803zm-4.138 7.127 3.518-1.542 2.689 1.542-2.687 1.542-3.519-1.542zm4.138 7.124.416-3.802 2.687-1.542v3.086l-3.103 2.258zm8.276 0-3.106-2.26v-3.084l2.689 1.544.417 3.8z"/></symbol><symbol id="icon-sun" viewBox="0 0 32 32"><path d="M15.969 26.489c-.591 0-1.098.507-1.098 1.098v3.253c0 .591.507 1.098 1.098 1.098s1.098-.507 1.098-1.098v-3.253c0-.592-.507-1.098-1.098-1.098zM21.63 10.308c-1.436-1.436-3.464-2.366-5.661-2.366s-4.225.887-5.661 2.366c-1.436 1.436-2.366 3.464-2.366 5.661s.929 4.225 2.366 5.661c1.436 1.436 3.464 2.366 5.661 2.366s4.225-.887 5.661-2.366c1.436-1.436 2.366-3.464 2.366-5.661s-.887-4.225-2.366-5.661zm-1.52 9.802c-1.056 1.056-2.535 1.69-4.14 1.69s-3.084-.634-4.14-1.69c-1.056-1.056-1.69-2.535-1.69-4.14s.634-3.084 1.69-4.14c1.056-1.056 2.535-1.69 4.14-1.69s3.084.634 4.14 1.69c1.056 1.056 1.69 2.535 1.69 4.14s-.634 3.084-1.69 4.14zM30.84 14.871h-3.253c-.592 0-1.098.507-1.098 1.098s.507 1.098 1.098 1.098h3.253c.591 0 1.098-.507 1.098-1.098s-.507-1.098-1.098-1.098zM15.969 0c-.591 0-1.098.507-1.098 1.098v3.253c0 .591.507 1.098 1.098 1.098s1.098-.507 1.098-1.098V1.098C17.067.507 16.56 0 15.969 0zM27.249 25.728l-2.324-2.324c-.38-.422-1.098-.422-1.521 0s-.422 1.098 0 1.521l2.324 2.324c.422.422 1.098.422 1.521 0s.422-1.098 0-1.521zM27.291 4.689a1.072 1.072 0 0 0-1.521 0l-2.324 2.324a1.072 1.072 0 0 0 0 1.521c.38.422 1.098.422 1.521 0l2.324-2.324a1.072 1.072 0 0 0 0-1.521zM8.492 23.405c-.38-.422-1.098-.422-1.521 0l-2.324 2.324c-.422.422-.422 1.098 0 1.521s1.098.422 1.521 0l2.324-2.324a1.072 1.072 0 0 0 0-1.521zM4.351 14.871H1.098c-.591 0-1.098.507-1.098 1.098s.465 1.098 1.098 1.098h3.253c.591 0 1.098-.507 1.098-1.098s-.507-1.098-1.098-1.098zM8.492 7.013 6.168 4.689c-.422-.422-1.098-.422-1.521 0s-.422 1.098 0 1.521l2.324 2.324c.422.422 1.098.422 1.521 0s.422-1.098 0-1.521z"/></symbol><symbol id="icon-sad-cart" viewBox="0 0 28 32"><path d="M19.405 8.888a.256.256 0 0 0-.195-.09H6.487l-.256-1.421a.258.258 0 0 0-.219-.21h-.001l-2.048-.256a.257.257 0 0 0-.29.256c0 .131.098.24.225.256h.001l1.874.233 1.62 9.293a.256.256 0 0 0 .252.212h1.381v.184a1.252 1.252 0 1 0 .52.001l-.008-.001v-.195h6.692v.184a1.252 1.252 0 1 0 .52.001l-.008-.001v-.184h1.252a.256.256 0 0 0 0-.512H7.856l-.146-.84H18.25a.256.256 0 0 0 .253-.216v-.001l.952-6.49a.252.252 0 0 0-.052-.205v.001zm-9.39 9.677a.74.74 0 1 1-.74-.74.74.74 0 0 1 .74.74zm7.209 0a.74.74 0 1 1-.74-.74.74.74 0 0 1 .74.74zm.804-3.272H7.622L6.578 9.31h12.337zm-6.582-1.707a.256.256 0 0 1-.237-.35l-.001.002a1.665 1.665 0 0 1 3.094-.012l.004.011a.256.256 0 1 1-.476.189l-.001-.002a1.151 1.151 0 0 0-1.07-.73h-.012c-.48 0-.891.298-1.058.719l-.003.008a.257.257 0 0 1-.239.164h-.002zm.471-2.158a.407.407 0 1 1-.407-.42h.011-.001c.22.006.397.186.397.407v.014-.001zm2.493 0a.407.407 0 1 1-.41-.42h.003c.225 0 .407.182.407.407v.013-.001z"/></symbol><symbol id="icon-hamburger" viewBox="0 0 47 32"><path stroke-linejoin="round" stroke-linecap="round" stroke-width="4.364" d="M1.961 29.154h42.965M1.961 15.615h42.965M1.961 2.077h42.965"/></symbol><symbol id="icon-bicycle" viewBox="0 0 32 32"><path d="M25.188 12.515c-.827 0-1.614.168-2.33.471l.039-.015-3.827-7.585h1.049a.475.475 0 0 0 0-.95h-3.485a.475.475 0 0 0 0 .95h1.369l2.24 4.436H11.09a.474.474 0 0 0-.42.254l-.001.003-1.527 2.912a5.914 5.914 0 0 0-2.334-.471 6.02 6.02 0 1 0 5.965 6.839l.003-.031h3.423a.474.474 0 0 0 .422-.257l.001-.003 4.144-8.209 1.286 2.535c-1.733 1.077-2.869 2.971-2.869 5.13a6.02 6.02 0 1 0 6.02-6.02h-.015.001zM6.812 23.604a5.069 5.069 0 1 1 1.935-9.758l-.034-.012-2.512 4.8a.475.475 0 0 0 .422.694h5.19c-.396 2.436-2.483 4.273-4.999 4.277zm2.731-9.347a5.077 5.077 0 0 1 2.329 4.111v.008H7.405zm6.359 4.119h-3.08a6.02 6.02 0 0 0-2.826-4.934l-.025-.015 1.394-2.655h8.38zm9.286 5.228a5.07 5.07 0 0 1-2.713-9.334l.02-.012 2.348 4.651a.476.476 0 0 0 .836-.308.466.466 0 0 0-.017-.125l.001.003-2.335-4.654a5.069 5.069 0 1 1 1.871 9.78h-.012.001z"/><path d="M8.713 8.554h4.436a.475.475 0 0 0 0-.95H8.713a.475.475 0 0 0 0 .95z"/></symbol><symbol id="icon-tool" viewBox="0 0 32 32"><path stroke-linejoin="round" stroke-linecap="round" stroke-miterlimit="10" stroke-width="2" d="M27.8 28.2c-1.3 1.3-3.3 1.3-4.6 0L17 22l4.6-4.6 6.2 6.2c1.3 1.2 1.3 3.3 0 4.6z"/><path stroke-linejoin="round" stroke-linecap="round" stroke-miterlimit="10" stroke-width="2" d="m6.2 3.5-3 3.1 2.3 3.9 3.8 2.3 8.5 8.5 3.1-3.1-8.5-8.5-2.3-3.9z"/><path stroke-linejoin="round" stroke-miterlimit="10" stroke-width="2" d="m18.9 16.1 2.7-2.7c1.9.7 4.2.4 5.7-1.2 1.5-1.5 1.9-3.8 1.2-5.7l-2.6 2.6-2.4-.6-.6-2.4 2.6-2.6c-1.9-.7-4.2-.4-5.7 1.2-1.5 1.5-1.9 3.8-1.2 5.7l-2.7 2.7M12.7 16.3l-2.3 2.3c-1.9-.7-4.2-.4-5.7 1.2-1.5 1.5-1.9 3.8-1.2 5.7l2.6-2.6 2.4.6.6 2.4-2.6 2.6c1.9.7 4.2.4 5.7-1.2 1.5-1.5 1.9-3.8 1.2-5.7l2.4-2.4"/></symbol></defs></svg>