<svg aria-hidden="true" style="position: absolute; width: 0; height: 0; overflow: hidden;" version="1.1" xmlns="http://www.w3.org/2000/svg" xmlns:xlink="http://www.w3.org/1999/xlink">
<defs>
<symbol id="icon-bicycle" viewBox="0 0 32 32">
<path d="M25.188 12.515c-0.827 0-1.614 0.168-2.33 0.471l0.039-0.015-3.827-7.585h1.049c0.262 0 0.475-0.213 0.475-0.475s-0.213-0.475-0.475-0.475v0h-3.485c-0.262 0-0.475 0.213-0.475 0.475s0.213 0.475 0.475 0.475v0h1.369l2.24 4.436h-9.153c-0.182 0-0.341 0.103-0.42 0.254l-0.001 0.003-1.527 2.912c-0.689-0.298-1.491-0.471-2.334-0.471-3.325 0-6.020 2.695-6.020 6.020s2.695 6.020 6.020 6.020c3.047 0 5.565-2.264 5.965-5.201l0.003-0.031h3.422c0 0 0.001 0 0.001 0 0.184 0 0.343-0.104 0.422-0.257l0.001-0.003 4.144-8.209 1.286 2.535c-1.733 1.077-2.869 2.971-2.869 5.13 0 3.325 2.695 6.020 6.020 6.020s6.020-2.695 6.020-6.020c0-3.325-2.695-6.020-6.020-6.020-0.005 0-0.010 0-0.015 0h0.001zM6.812 23.604c-2.797-0.003-5.063-2.272-5.063-5.069 0-2.8 2.27-5.069 5.069-5.069 0.683 0 1.334 0.135 1.929 0.38l-0.034-0.012-2.512 4.8c-0.034 0.063-0.053 0.139-0.053 0.219 0 0.262 0.212 0.475 0.475 0.475h5.19c-0.396 2.436-2.483 4.273-4.999 4.277h-0zM9.543 14.257c1.37 0.89 2.277 2.393 2.329 4.111l0 0.008h-4.467zM15.902 18.376h-3.080c-0.061-2.086-1.175-3.9-2.826-4.934l-0.025-0.015 1.394-2.655h8.38zM25.188 23.604c-2.788-0.016-5.042-2.279-5.042-5.069 0-1.79 0.928-3.363 2.329-4.265l0.020-0.012 2.348 4.651c0.088 0.102 0.217 0.167 0.361 0.167 0.262 0 0.475-0.213 0.475-0.475 0-0.043-0.006-0.086-0.017-0.125l0.001 0.003-2.335-4.654c0.554-0.227 1.197-0.358 1.871-0.358 2.8 0 5.069 2.27 5.069 5.069s-2.27 5.069-5.069 5.069c-0.004 0-0.008 0-0.012 0h0.001z"></path>
<path d="M8.713 8.554h4.436c0.262 0 0.475-0.213 0.475-0.475s-0.213-0.475-0.475-0.475v0h-4.436c-0.262 0-0.475 0.213-0.475 0.475s0.213 0.475 0.475 0.475v0z"></path>
</symbol>
<symbol id="icon-compass" viewBox="0 0 32 32">
<path d="M16 0c-8.837 0-16 7.163-16 16s7.163 16 16 16 16-7.163 16-16-7.163-16-16-16zM3 16c0-7.18 5.82-13 13-13 3.424 0 6.538 1.325 8.86 3.488l-12.86 5.512-5.512 12.86c-2.164-2.322-3.488-5.436-3.488-8.86zM18.286 18.286l-8.003 3.43 3.43-8.003 4.573 4.573zM16 29c-3.424 0-6.539-1.325-8.86-3.488l12.86-5.512 5.512-12.86c2.164 2.322 3.488 5.436 3.488 8.86 0 7.18-5.82 13-13 13z"></path>
</symbol>
<symbol id="icon-machine" viewBox="0 0 32 32">
<path d="M7.040 11.418h-0.256l1.818 6.963h2.381l-1.971-7.552c-0.563 0.358-1.254 0.589-1.971 0.589z"></path>
<path d="M16.896 5.094c-0.512-0.589-0.819-1.331-0.845-2.15l-6.221 2.458c0.486 0.589 0.794 1.331 0.845 2.15z"></path>
<path d="M20.838 6.221c-0.358 0.128-0.742 0.179-1.152 0.179s-0.794-0.077-1.152-0.179v3.942l-2.56 2.534c-0.282 0.282-0.333 0.717-0.128 1.050l1.306 2.074c0.154 0.256 0.435 0.41 0.717 0.41 0.154 0 0.307-0.051 0.461-0.128 0.384-0.256 0.512-0.768 0.256-1.178l-0.947-1.51 2.022-2.022 2.048 2.022-0.947 1.51c-0.256 0.384-0.128 0.922 0.256 1.178 0.128 0.077 0.282 0.128 0.461 0.128 0.282 0 0.563-0.128 0.717-0.41l1.306-2.074c0.205-0.333 0.154-0.768-0.128-1.050l-2.56-2.534 0-3.942z"></path>
<path d="M9.139 7.757c0 1.159-0.94 2.099-2.099 2.099s-2.099-0.94-2.099-2.099c0-1.159 0.94-2.099 2.099-2.099s2.099 0.94 2.099 2.099z"></path>
<path d="M19.686 4.864c1.152 0 2.099-0.947 2.099-2.099s-0.947-2.099-2.099-2.099c-1.152 0-2.099 0.947-2.099 2.099s0.922 2.099 2.099 2.099z"></path>
<path d="M25.293 19.891h-18.586c-1.408 0-2.534 1.126-2.534 2.534s1.126 2.534 2.534 2.534h18.56c1.408 0 2.534-1.126 2.534-2.534 0.026-1.383-1.126-2.534-2.509-2.534zM6.707 23.603c-0.64 0-1.178-0.538-1.178-1.178 0-0.666 0.538-1.178 1.178-1.178s1.178 0.538 1.178 1.178c0.026 0.64-0.512 1.178-1.178 1.178zM10.445 23.603c-0.666 0-1.178-0.538-1.178-1.178 0-0.666 0.538-1.178 1.178-1.178s1.178 0.538 1.178 1.178c-0.026 0.64-0.538 1.178-1.178 1.178zM14.131 23.603c-0.64 0-1.178-0.538-1.178-1.178 0-0.666 0.538-1.178 1.178-1.178 0.666 0 1.178 0.538 1.178 1.178 0.026 0.64-0.512 1.178-1.178 1.178zM17.869 23.603c-0.64 0-1.178-0.538-1.178-1.178 0-0.666 0.538-1.178 1.178-1.178s1.178 0.538 1.178 1.178-0.538 1.178-1.178 1.178zM21.581 23.603c-0.666 0-1.178-0.538-1.178-1.178 0-0.666 0.538-1.178 1.178-1.178s1.178 0.538 1.178 1.178-0.538 1.178-1.178 1.178zM25.293 23.603c-0.64 0-1.178-0.538-1.178-1.178 0-0.666 0.538-1.178 1.178-1.178s1.178 0.538 1.178 1.178c-0 0.64-0.538 1.178-1.178 1.178z"></path>
</symbol>
<symbol id="icon-repair" viewBox="0 0 32 32">
<path d="M31.342 25.559l-14.392-12.336c0.67-1.259 1.051-2.696 1.051-4.222 0-4.971-4.029-9-9-9-0.909 0-1.787 0.135-2.614 0.386l5.2 5.2c0.778 0.778 0.778 2.051 0 2.828l-3.172 3.172c-0.778 0.778-2.051 0.778-2.828 0l-5.2-5.2c-0.251 0.827-0.386 1.705-0.386 2.614 0 4.971 4.029 9 9 9 1.526 0 2.963-0.38 4.222-1.051l12.336 14.392c0.716 0.835 1.938 0.882 2.716 0.104l3.172-3.172c0.778-0.778 0.731-2-0.104-2.716z"></path>
</symbol>
<symbol id="icon-search" viewBox="0 0 32 32">
<path d="M26 13c0 2.869-0.931 5.519-2.5 7.669l7.913 7.919c0.781 0.781 0.781 2.050 0 2.831s-2.050 0.781-2.831 0l-7.912-7.919c-2.15 1.575-4.8 2.5-7.669 2.5-7.181 0-13-5.819-13-13s5.819-13 13-13 13 5.819 13 13zM13 22c4.971 0 9-4.029 9-9s-4.029-9-9-9v0c-4.971 0-9 4.029-9 9s4.029 9 9 9v0z"></path>
</symbol>
<symbol id="icon-worker" viewBox="0 0 32 32">
<path d="M25.114 23.91l-0.614-2.355c-0.41-1.638-1.766-2.816-3.43-3.046l-1.485-0.23-0.435-1.28c1.178-0.845 2.074-2.099 2.458-3.661 0.41-0.205 1.101-0.768 1.101-2.176 0-1.024-0.179-1.638-0.512-1.971-0.077-0.077-0.179-0.102-0.256-0.179-0.026-0.205-0.051-0.41-0.102-0.614h-1.818c0.102 1.050 0.205 2.176 0.205 2.176 0 0.128 0.102 0.282 0.256 0.282h0.691c0.128 0 0.256-0.614 0.256-0.794h0.154c0.077 0.179 0.128 0.461 0.128 1.101 0 1.152-0.589 1.357-0.666 1.357-0.205 0.051-0.358 0.205-0.384 0.384-0.461 2.406-2.406 4.147-4.71 4.147-2.253 0-4.224-1.741-4.659-4.147-0.051-0.205-0.205-0.358-0.384-0.384-0.077-0.026-0.666-0.205-0.666-1.357 0-0.614 0.077-0.922 0.128-1.101h0.154c0 0.179 0.128 0.794 0.256 0.794h0.691c0.154 0 0.256-0.128 0.256-0.282 0 0 0.077-1.152 0.205-2.176h-1.792c-0.051 0.205-0.077 0.41-0.102 0.614-0.077 0.051-0.179 0.077-0.23 0.154-0.384 0.358-0.538 0.947-0.538 1.997 0 1.408 0.691 1.971 1.101 2.176 0.358 1.562 1.254 2.842 2.458 3.661l-0.435 1.28-1.485 0.205c-1.664 0.23-3.021 1.408-3.43 3.046l-0.614 2.355c-0.077 0.256-0.026 0.538 0.154 0.742 0.154 0.205 0.41 0.307 0.666 0.307h16.589c0.256 0 0.512-0.102 0.666-0.307 0.204-0.205 0.256-0.461 0.179-0.717zM13.286 18.79l0.435-1.28c0.717 0.307 1.485 0.538 2.304 0.538 0.794 0 1.562-0.205 2.278-0.538l0.435 1.28c-1.638 1.178-3.84 1.178-5.453 0z"></path>
<path d="M15.078 10.778c0 0.466-0.378 0.845-0.845 0.845s-0.845-0.378-0.845-0.845c0-0.467 0.378-0.845 0.845-0.845s0.845 0.378 0.845 0.845z"></path>
<path d="M18.611 10.778c0 0.466-0.378 0.845-0.845 0.845s-0.845-0.378-0.845-0.845c0-0.467 0.378-0.845 0.845-0.845s0.845 0.378 0.845 0.845z"></path>
<path d="M16 14.925c0.717 0 1.382-0.256 1.741-0.691 0.128-0.154 0.102-0.358-0.026-0.486-0.154-0.128-0.358-0.102-0.486 0.026-0.461 0.538-1.971 0.538-2.432 0-0.128-0.154-0.333-0.154-0.486-0.026s-0.154 0.333-0.026 0.486c0.333 0.41 0.998 0.691 1.715 0.691z"></path>
<path d="M10.214 7.834h11.571c0.23 0 0.435-0.205 0.435-0.435v-0.461c0-0.461-0.282-0.87-0.691-1.024-0.307-1.869-1.51-3.379-3.174-4.147l-0.461 2.125c-0.051 0.205-0.23 0.333-0.41 0.333h-0.077c-0.23-0.051-0.358-0.282-0.307-0.512l0.538-2.33c-0.102-0.41-0.461-0.717-0.922-0.717h-1.357c-0.435 0-0.794 0.282-0.922 0.691l0.538 2.355c0.051 0.23-0.077 0.435-0.307 0.512h-0.102c-0.205 0-0.358-0.128-0.41-0.333l-0.486-2.125c-1.664 0.768-2.867 2.304-3.174 4.147-0.384 0.179-0.666 0.563-0.666 1.024v0.461c-0.026 0.256 0.153 0.435 0.384 0.435z"></path>
</symbol>
<symbol id="icon-facebook" viewBox="0 0 32 32">
<path d="M21.329 5.313h2.921v-5.088c-0.504-0.069-2.237-0.225-4.256-0.225-4.212 0-7.097 2.649-7.097 7.519v4.481h-4.648v5.688h4.648v14.312h5.699v-14.311h4.46l0.708-5.688h-5.169v-3.919c0.001-1.644 0.444-2.769 2.735-2.769z"></path>
</symbol>
<symbol id="icon-instagram" viewBox="0 0 32 32">
<path d="M31.969 9.408c-0.075-1.7-0.35-2.869-0.744-3.882-0.406-1.075-1.031-2.038-1.85-2.838-0.8-0.813-1.769-1.444-2.832-1.844-1.019-0.394-2.182-0.669-3.882-0.744-1.713-0.081-2.257-0.1-6.601-0.1s-4.888 0.019-6.595 0.094c-1.7 0.075-2.869 0.35-3.882 0.744-1.075 0.406-2.038 1.031-2.838 1.85-0.813 0.8-1.444 1.769-1.844 2.832-0.394 1.019-0.669 2.182-0.744 3.882-0.081 1.713-0.1 2.257-0.1 6.601s0.019 4.888 0.094 6.595c0.075 1.7 0.35 2.869 0.744 3.882 0.406 1.075 1.038 2.038 1.85 2.838 0.8 0.813 1.769 1.444 2.832 1.844 1.019 0.394 2.182 0.669 3.882 0.744 1.706 0.075 2.25 0.094 6.595 0.094s4.888-0.019 6.595-0.094c1.7-0.075 2.869-0.35 3.882-0.744 2.151-0.831 3.851-2.532 4.682-4.682 0.394-1.019 0.669-2.182 0.744-3.882 0.075-1.707 0.094-2.25 0.094-6.595s-0.006-4.888-0.081-6.595zM29.087 22.473c-0.069 1.563-0.331 2.407-0.55 2.969-0.538 1.394-1.644 2.5-3.038 3.038-0.563 0.219-1.413 0.481-2.969 0.55-1.688 0.075-2.194 0.094-6.464 0.094s-4.782-0.019-6.464-0.094c-1.563-0.069-2.407-0.331-2.969-0.55-0.694-0.256-1.325-0.663-1.838-1.194-0.531-0.519-0.938-1.144-1.194-1.838-0.219-0.563-0.481-1.413-0.55-2.969-0.075-1.688-0.094-2.194-0.094-6.464s0.019-4.782 0.094-6.464c0.069-1.563 0.331-2.407 0.55-2.969 0.256-0.694 0.663-1.325 1.2-1.838 0.519-0.531 1.144-0.938 1.838-1.194 0.563-0.219 1.413-0.481 2.969-0.55 1.688-0.075 2.194-0.094 6.464-0.094 4.276 0 4.782 0.019 6.464 0.094 1.563 0.069 2.407 0.331 2.969 0.55 0.694 0.256 1.325 0.662 1.838 1.194 0.531 0.519 0.938 1.144 1.194 1.838 0.219 0.563 0.481 1.413 0.55 2.969 0.075 1.688 0.094 2.194 0.094 6.464s-0.019 4.77-0.094 6.458z"></path>
<path d="M16.059 7.783c-4.538 0-8.22 3.682-8.22 8.22s3.682 8.22 8.22 8.22c4.538 0 8.22-3.682 8.22-8.22s-3.682-8.22-8.22-8.22zM16.059 21.335c-2.944 0-5.332-2.388-5.332-5.332s2.388-5.332 5.332-5.332c2.944 0 5.332 2.388 5.332 5.332s-2.388 5.332-5.332 5.332z"></path>
<path d="M26.524 7.457c0 1.060-0.859 1.919-1.919 1.919s-1.919-0.859-1.919-1.919c0-1.060 0.859-1.919 1.919-1.919s1.919 0.859 1.919 1.919z"></path>
</symbol>
<symbol id="icon-telegram" viewBox="0 0 34 32">
<path d="M31.246 1.679c-0.406 0.030-0.804 0.125-1.179 0.282h-0.005c-0.36 0.143-2.072 0.863-4.674 1.954l-9.325 3.927c-6.691 2.817-13.268 5.591-13.268 5.591l0.078-0.030c0 0-0.453 0.149-0.927 0.474-0.293 0.186-0.544 0.43-0.74 0.716-0.232 0.341-0.419 0.863-0.35 1.402 0.114 0.912 0.705 1.459 1.129 1.761 0.429 0.306 0.839 0.448 0.839 0.448h0.010l6.168 2.078c0.277 0.888 1.88 6.158 2.265 7.372 0.227 0.725 0.448 1.178 0.725 1.525 0.134 0.177 0.291 0.325 0.479 0.443 0.098 0.057 0.202 0.102 0.311 0.134l-0.063-0.015c0.019 0.005 0.034 0.020 0.048 0.025 0.051 0.014 0.085 0.019 0.149 0.029 0.976 0.296 1.761-0.311 1.761-0.311l0.044-0.035 3.642-3.316 6.104 4.682 0.139 0.059c1.272 0.558 2.561 0.248 3.241-0.301 0.686-0.552 0.952-1.258 0.952-1.258l0.044-0.114 4.717-24.163c0.134-0.596 0.168-1.155 0.020-1.696-0.152-0.548-0.504-1.020-0.987-1.323-0.405-0.246-0.874-0.365-1.348-0.341zM31.119 4.268c-0.005 0.080 0.010 0.071-0.025 0.224v0.014l-4.672 23.912c-0.020 0.034-0.054 0.109-0.148 0.183-0.099 0.078-0.177 0.128-0.587-0.035l-7.465-5.723-4.51 4.11 0.947-6.051 12.197-11.368c0.503-0.467 0.335-0.566 0.335-0.566 0.035-0.573-0.759-0.168-0.759-0.168l-15.38 9.528-0.005-0.025-7.391-2.491c0.013-0.004 0.026-0.009 0.038-0.015l0.040-0.020 0.039-0.014c0 0 6.582-2.774 13.273-5.591 3.35-1.411 6.725-2.832 9.321-3.928 1.54-0.648 3.081-1.292 4.623-1.933 0.104-0.040 0.054-0.040 0.129-0.040v-0.001z"></path>
</symbol>
<symbol id="icon-location" viewBox="0 0 32 32">
<path d="M16 0c-5.523 0-10 4.477-10 10 0 10 10 22 10 22s10-12 10-22c0-5.523-4.477-10-10-10zM16 16c-3.314 0-6-2.686-6-6s2.686-6 6-6 6 2.686 6 6-2.686 6-6 6z"></path>
</symbol>
<symbol id="icon-youtube" viewBox="0 0 32 32">
<path d="M31.681 9.6c0 0-0.313-2.206-1.275-3.175-1.219-1.275-2.581-1.281-3.206-1.356-4.475-0.325-11.194-0.325-11.194-0.325h-0.012c0 0-6.719 0-11.194 0.325-0.625 0.075-1.987 0.081-3.206 1.356-0.963 0.969-1.269 3.175-1.269 3.175s-0.319 2.588-0.319 5.181v2.425c0 2.587 0.319 5.181 0.319 5.181s0.313 2.206 1.269 3.175c1.219 1.275 2.819 1.231 3.531 1.369 2.563 0.244 10.881 0.319 10.881 0.319s6.725-0.012 11.2-0.331c0.625-0.075 1.988-0.081 3.206-1.356 0.962-0.969 1.275-3.175 1.275-3.175s0.319-2.587 0.319-5.181v-2.425c-0.006-2.588-0.325-5.181-0.325-5.181zM12.694 20.15v-8.994l8.644 4.513-8.644 4.481z"></path>
</symbol>
<symbol id="icon-closeCross" viewBox="0 0 32 32">
<path d="M2.901 0.844c-0.866 0.324-1.799 1.28-2.076 2.132-0.149 0.46-0.092 1.028 0.16 1.543 0.197 0.405 0.311 0.524 5.728 5.948l5.525 5.532-5.525 5.532c-5.454 5.461-5.529 5.54-5.733 5.957-0.197 0.407-0.206 0.446-0.206 0.96 0 0.501 0.012 0.56 0.176 0.887 0.354 0.704 1.010 1.36 1.714 1.714 0.327 0.164 0.386 0.176 0.887 0.176 0.514 0 0.553-0.009 0.96-0.206 0.418-0.204 0.496-0.279 5.957-5.733l5.532-5.525 5.532 5.525c5.461 5.454 5.54 5.529 5.957 5.733 0.407 0.197 0.446 0.206 0.96 0.206 0.501 0 0.56-0.012 0.887-0.176 0.453-0.228 0.939-0.622 1.273-1.035 0.146-0.18 0.343-0.485 0.441-0.679 0.164-0.327 0.176-0.386 0.176-0.887 0-0.514-0.009-0.553-0.206-0.96-0.204-0.418-0.279-0.496-5.733-5.957l-5.525-5.532 5.525-5.532c5.454-5.461 5.529-5.54 5.733-5.957 0.197-0.407 0.206-0.446 0.206-0.96 0-0.501-0.012-0.56-0.176-0.887-0.354-0.704-1.010-1.36-1.714-1.714-0.327-0.164-0.386-0.176-0.887-0.176-0.514 0-0.553 0.009-0.96 0.206-0.418 0.204-0.496 0.279-5.957 5.733l-5.532 5.525-5.532-5.525c-5.438-5.429-5.541-5.531-5.952-5.73-0.37-0.18-0.473-0.206-0.88-0.222-0.356-0.012-0.526 0.007-0.734 0.084z"></path>
</symbol>
<symbol id="icon-cart" viewBox="0 0 32 32">
<path d="M12 29c0 1.657-1.343 3-3 3s-3-1.343-3-3c0-1.657 1.343-3 3-3s3 1.343 3 3z"></path>
<path d="M32 29c0 1.657-1.343 3-3 3s-3-1.343-3-3c0-1.657 1.343-3 3-3s3 1.343 3 3z"></path>
<path d="M32 16v-12h-24c0-1.105-0.895-2-2-2h-6v2h4l1.502 12.877c-0.915 0.733-1.502 1.859-1.502 3.123 0 2.209 1.791 4 4 4h24v-2h-24c-1.105 0-2-0.895-2-2 0-0.007 0-0.014 0-0.020l26-3.98z"></path>
</symbol>
<symbol id="icon-trash" viewBox="0 0 32 32">
<path fill="none" stroke="#fff" style="stroke: var(--color1, #fff)" stroke-linejoin="round" stroke-linecap="round" stroke-miterlimit="4" stroke-width="2.9091" d="M12 4h8M4 8h24M25.333 8l-0.935 14.026c-0.14 2.104-0.21 3.157-0.665 3.954-0.4 0.702-1.004 1.267-1.731 1.619-0.826 0.4-1.881 0.4-3.99 0.4h-4.025c-2.109 0-3.163 0-3.99-0.4-0.727-0.353-1.331-0.917-1.731-1.619-0.455-0.798-0.525-1.85-0.665-3.954l-0.935-14.026M13.333 14v6.667M18.667 14v6.667"></path>
</symbol>
<symbol id="icon-logo" viewBox="0 0 78 32">
<path fill="#137ecb" style="fill: var(--color1, #137ecb)" d="M4.42 4.97v21.867h21.759v1.374h-23.11v-24.634h6.756v1.393h-5.404z"></path>
<path fill="#137ecb" style="fill: var(--color1, #137ecb)" d="M74.046 4.97v21.867h-21.759v1.374h23.11v-24.634h-6.755v1.393h5.404z"></path>
<path fill="#137ecb" style="fill: var(--color1, #137ecb)" d="M17.013 17.713c0 0.831-0.254 1.467-0.763 1.909s-1.242 0.663-2.201 0.662c-0.938 0-1.737-0.152-2.395-0.456v-1.635c0.806 0.434 1.545 0.651 2.218 0.651 0.383 0 0.672-0.087 0.866-0.261s0.292-0.411 0.293-0.712c0-0.296-0.115-0.566-0.346-0.811s-0.611-0.518-1.142-0.818c-0.462-0.264-0.812-0.516-1.050-0.757-0.233-0.234-0.421-0.509-0.553-0.812-0.13-0.3-0.196-0.649-0.196-1.046 0-0.762 0.257-1.366 0.77-1.812s1.202-0.669 2.066-0.67c0.828 0.001 1.644 0.196 2.381 0.572l-0.663 1.325c-0.241-0.116-0.488-0.217-0.74-0.304-0.267-0.091-0.547-0.136-0.829-0.134-0.324 0-0.574 0.088-0.748 0.264s-0.262 0.416-0.262 0.72c-0.003 0.292 0.109 0.574 0.313 0.784 0.209 0.223 0.573 0.476 1.094 0.76 0.703 0.389 1.193 0.786 1.47 1.192s0.416 0.868 0.416 1.388z"></path>
<path fill="#137ecb" style="fill: var(--color1, #137ecb)" d="M28.071 20.162h-2.137l-1.767-3.8-0.803 0.663v3.136h-2.006v-8.887h2.006v4.408l0.7-1.331 1.835-3.077h2.144l-2.491 3.848 2.519 5.040z"></path>
<path fill="#137ecb" style="fill: var(--color1, #137ecb)" d="M34.634 14.782l1.436-3.508h2.1l-2.557 5.325v3.563h-1.975v-3.496l-2.549-5.392h2.115l1.43 3.508z"></path>
<path fill="#137ecb" style="fill: var(--color1, #137ecb)" d="M42.369 20.162v-8.889h0.722v8.317h3.035v0.572h-3.758z"></path>
<path fill="#137ecb" style="fill: var(--color1, #137ecb)" d="M50.627 20.162v-8.889h0.722v8.889h-0.722z"></path>
<path fill="#137ecb" style="fill: var(--color1, #137ecb)" d="M57.447 20.162h-0.722v-8.889h3.921v0.571h-3.199v3.769h3.022v0.578h-3.022v3.97z"></path>
<path fill="#137ecb" style="fill: var(--color1, #137ecb)" d="M69.022 20.162h-3.906v-8.889h3.906v0.571h-3.184v3.373h3.005v0.572h-3.005v3.801h3.184v0.572z"></path>
<path fill="#137ecb" style="fill: var(--color1, #137ecb)" d="M13.827 5.648h-0.197v-2.377h-1.025v2.377h-0.197v-2.54h1.419v2.54z"></path>
<path fill="#137ecb" style="fill: var(--color1, #137ecb)" d="M16.44 3.838c0 0.262-0.069 0.454-0.208 0.577s-0.344 0.184-0.616 0.184h-0.208v1.050h-0.198v-2.54h0.402c0.287 0 0.496 0.058 0.629 0.175s0.199 0.302 0.2 0.554zM15.407 4.443h0.197c0.23 0 0.394-0.047 0.49-0.141s0.145-0.249 0.145-0.464c0-0.205-0.050-0.352-0.149-0.44s-0.254-0.133-0.464-0.133h-0.219v1.178z"></path>
<path fill="#137ecb" style="fill: var(--color1, #137ecb)" d="M19.235 4.375c0 0.42-0.073 0.744-0.218 0.969s-0.355 0.339-0.63 0.339c-0.278 0-0.488-0.114-0.631-0.341s-0.215-0.551-0.215-0.971c0-0.438 0.071-0.764 0.213-0.978s0.355-0.321 0.64-0.32c0.273 0 0.482 0.113 0.625 0.338s0.215 0.547 0.216 0.965zM17.747 4.375c0 0.378 0.055 0.663 0.164 0.856s0.268 0.289 0.476 0.289c0.21 0 0.37-0.096 0.479-0.287s0.164-0.477 0.164-0.858c0-0.376-0.054-0.66-0.161-0.852s-0.266-0.288-0.475-0.288c-0.216 0-0.378 0.097-0.485 0.291s-0.162 0.477-0.163 0.849h0.001z"></path>
<path fill="#137ecb" style="fill: var(--color1, #137ecb)" d="M20.717 4.335l0.831-1.227h0.213l-0.838 1.227 0.905 1.313h-0.227l-0.884-1.299v1.299h-0.197v-2.54h0.197v1.227z"></path>
<path fill="#137ecb" style="fill: var(--color1, #137ecb)" d="M24.002 5.648l-0.259-0.921h-0.714l-0.254 0.921h-0.205l0.707-2.54h0.203l0.723 2.54h-0.201zM23.696 4.555l-0.259-0.947c-0.027-0.107-0.048-0.207-0.062-0.302-0.012 0.102-0.031 0.203-0.056 0.302l-0.251 0.947h0.629z"></path>
<path fill="#137ecb" style="fill: var(--color1, #137ecb)" d="M25.753 5.648h-0.197v-2.377h-0.586v-0.163h1.369v0.163h-0.586v2.377z"></path>
<path fill="#137ecb" style="fill: var(--color1, #137ecb)" d="M29.779 3.232c-0.221 0-0.397 0.101-0.528 0.303s-0.196 0.482-0.196 0.84c-0.004 0.206 0.026 0.412 0.089 0.608 0.059 0.173 0.146 0.305 0.259 0.398 0.11 0.092 0.249 0.141 0.392 0.139 0.135 0.003 0.269-0.021 0.394-0.071v0.156c-0.104 0.052-0.242 0.078-0.412 0.078-0.176 0.003-0.348-0.052-0.49-0.156-0.139-0.104-0.247-0.255-0.324-0.453s-0.115-0.432-0.114-0.704c0-0.405 0.083-0.724 0.25-0.956s0.394-0.347 0.682-0.346c0.163-0.004 0.325 0.033 0.47 0.108l-0.089 0.148c-0.118-0.063-0.251-0.095-0.385-0.092z"></path>
<path fill="#137ecb" style="fill: var(--color1, #137ecb)" d="M32.837 5.648h-0.197v-1.248h-1.025v1.248h-0.197v-2.54h0.197v1.127h1.025v-1.127h0.197v2.54z"></path>
<path fill="#137ecb" style="fill: var(--color1, #137ecb)" d="M35.331 5.648l-0.259-0.921h-0.714l-0.255 0.921h-0.205l0.707-2.54h0.203l0.723 2.54h-0.2zM35.026 4.555l-0.259-0.947c-0.027-0.107-0.048-0.207-0.063-0.302-0.012 0.102-0.031 0.203-0.056 0.302l-0.251 0.947h0.629z"></path>
<path fill="#137ecb" style="fill: var(--color1, #137ecb)" d="M37.826 3.838c0 0.262-0.069 0.454-0.208 0.577s-0.344 0.184-0.616 0.184h-0.208v1.050h-0.197v-2.54h0.402c0.286 0 0.496 0.058 0.629 0.175s0.199 0.302 0.199 0.554zM36.793 4.442h0.197c0.23 0 0.394-0.047 0.49-0.141s0.144-0.249 0.143-0.464c0-0.205-0.050-0.352-0.149-0.44s-0.254-0.133-0.463-0.133h-0.219l0 1.178z"></path>
<path fill="#137ecb" style="fill: var(--color1, #137ecb)" d="M39.558 4.538l-0.546 1.11h-0.223l0.585-1.135c-0.141-0.029-0.265-0.112-0.346-0.23-0.083-0.12-0.125-0.268-0.125-0.446 0-0.486 0.254-0.73 0.761-0.73h0.478v2.54h-0.199v-1.107l-0.386-0.003zM39.945 3.266h-0.249c-0.209 0-0.359 0.045-0.449 0.134s-0.136 0.233-0.136 0.431c0 0.192 0.042 0.334 0.127 0.424s0.219 0.135 0.404 0.134h0.304l0-1.123z"></path>
<path fill="#137ecb" style="fill: var(--color1, #137ecb)" d="M42.234 3.108h0.197v1.227l0.792-1.227h0.213l-0.803 1.227 0.826 1.313h-0.221l-0.808-1.299v1.299h-0.197v-1.299l-0.804 1.299h-0.223l0.828-1.313-0.803-1.227h0.215l0.79 1.227-0-1.227z"></path>
<path fill="#137ecb" style="fill: var(--color1, #137ecb)" d="M45.587 5.648h-1.066v-2.54h1.065v0.163h-0.868v0.964h0.82v0.164h-0.82v1.086h0.868l0 0.163z"></path>
<path fill="#137ecb" style="fill: var(--color1, #137ecb)" d="M48.265 5.648h-0.197v-1.248h-1.024v1.248h-0.197v-2.54h0.197v1.127h1.024v-1.127h0.197v2.54z"></path>
<path fill="#137ecb" style="fill: var(--color1, #137ecb)" d="M49.649 3.108h0.192v1.775c0 0.039 0 0.078 0 0.118s-0.007 0.158-0.019 0.359h0.016l1.103-2.251h0.255v2.539h-0.193v-1.822c0-0.152 0.008-0.304 0.024-0.455h-0.016l-1.111 2.278h-0.251l-0.001-2.54z"></path>
<path fill="#137ecb" style="fill: var(--color1, #137ecb)" d="M53.114 4.538l-0.547 1.11h-0.223l0.585-1.135c-0.141-0.029-0.265-0.112-0.346-0.23-0.083-0.12-0.124-0.268-0.124-0.446 0-0.486 0.254-0.73 0.761-0.73h0.478v2.54h-0.199v-1.107l-0.386-0.003zM53.501 3.266h-0.249c-0.209 0-0.359 0.045-0.449 0.134s-0.135 0.233-0.135 0.431c0 0.192 0.042 0.334 0.126 0.424s0.219 0.136 0.404 0.136h0.303v-1.124z"></path>
<path fill="#137ecb" style="fill: var(--color1, #137ecb)" d="M56.597 3.108h0.193v1.775c0 0.039 0 0.078 0 0.118s-0.007 0.158-0.019 0.359h0.016l1.103-2.251h0.256v2.539h-0.193v-1.822c0-0.152 0.009-0.304 0.025-0.455h-0.016l-1.111 2.278h-0.251l-0.001-2.54z"></path>
<path fill="#137ecb" style="fill: var(--color1, #137ecb)" d="M61.043 3.108h0.193v1.775c0 0.039 0 0.078 0 0.118s-0.007 0.158-0.019 0.359h0.016l1.103-2.251h0.255v2.539h-0.193v-1.822c0-0.152 0.008-0.304 0.024-0.455h-0.017l-1.111 2.278h-0.251l-0-2.54z"></path>
<path fill="#137ecb" style="fill: var(--color1, #137ecb)" d="M64.999 3.108v0.163h-0.828v2.377h-0.197v-2.54h1.025z"></path>
<path fill="#137ecb" style="fill: var(--color1, #137ecb)" d="M67.323 3.838c0 0.262-0.070 0.454-0.209 0.577s-0.344 0.184-0.615 0.184h-0.208v1.050h-0.197v-2.54h0.402c0.287 0 0.497 0.058 0.629 0.175s0.199 0.302 0.199 0.554zM66.29 4.442h0.197c0.23 0 0.394-0.047 0.49-0.141s0.145-0.249 0.145-0.464c0-0.205-0.050-0.352-0.149-0.44s-0.254-0.133-0.463-0.133h-0.219l-0.001 1.178z"></path>
<path fill="#137ecb" style="fill: var(--color1, #137ecb)" d="M30.226 28.020c0 0.208-0.067 0.377-0.201 0.506s-0.304 0.193-0.51 0.192c-0.234 0-0.423-0.030-0.565-0.089v-0.184c0.083 0.038 0.17 0.065 0.259 0.080 0.101 0.019 0.203 0.029 0.306 0.030 0.069 0.002 0.137-0.010 0.2-0.035s0.121-0.064 0.169-0.113c0.048-0.049 0.086-0.108 0.111-0.172s0.037-0.133 0.035-0.201c0-0.14-0.034-0.251-0.102-0.333s-0.199-0.164-0.392-0.247c-0.121-0.049-0.235-0.113-0.339-0.192-0.072-0.058-0.129-0.132-0.167-0.216-0.039-0.094-0.057-0.195-0.054-0.296-0.002-0.117 0.029-0.233 0.089-0.334 0.059-0.097 0.145-0.176 0.247-0.227 0.108-0.054 0.227-0.082 0.348-0.081 0.104-0.001 0.209 0.010 0.31 0.033 0.076 0.016 0.149 0.040 0.22 0.071l-0.076 0.163c-0.143-0.065-0.297-0.099-0.454-0.099-0.145 0-0.262 0.043-0.353 0.128-0.045 0.044-0.081 0.096-0.104 0.154s-0.034 0.121-0.031 0.183c0 0.143 0.033 0.253 0.099 0.332s0.194 0.16 0.387 0.245c0.198 0.083 0.343 0.181 0.435 0.293 0.092 0.116 0.14 0.26 0.135 0.408z"></path>
<path fill="#137ecb" style="fill: var(--color1, #137ecb)" d="M31.465 28.685v-2.541h0.197v2.54l-0.197 0.001z"></path>
<path fill="#137ecb" style="fill: var(--color1, #137ecb)" d="M34.593 28.685h-0.251l-1.111-2.278h-0.016c0.016 0.151 0.024 0.303 0.024 0.455v1.822h-0.193v-2.54h0.257l1.103 2.251h0.012c-0.011-0.19-0.016-0.349-0.016-0.476v-1.775h0.193l-0.001 2.541z"></path>
<path fill="#137ecb" style="fill: var(--color1, #137ecb)" d="M36.807 26.269c-0.221 0-0.397 0.101-0.528 0.303s-0.196 0.482-0.196 0.84c-0.005 0.206 0.026 0.412 0.089 0.608 0.059 0.173 0.146 0.305 0.259 0.398 0.11 0.092 0.249 0.141 0.392 0.139 0.135 0.003 0.269-0.021 0.394-0.071v0.156c-0.105 0.052-0.242 0.078-0.412 0.078-0.176 0.003-0.348-0.052-0.489-0.156s-0.248-0.255-0.325-0.453c-0.076-0.198-0.114-0.432-0.115-0.703 0-0.405 0.083-0.724 0.25-0.956s0.394-0.348 0.682-0.347c0.163-0.004 0.325 0.033 0.471 0.108l-0.089 0.149c-0.118-0.064-0.25-0.096-0.384-0.094z"></path>
<path fill="#137ecb" style="fill: var(--color1, #137ecb)" d="M39.511 28.685h-1.065v-2.541h1.065v0.163h-0.868v0.964h0.819v0.163h-0.82v1.086h0.868l0.001 0.164z"></path>
<path fill="#137ecb" style="fill: var(--color1, #137ecb)" d="M43.428 28.685h-1.317v-0.136l0.595-0.775c0.182-0.24 0.304-0.432 0.367-0.577 0.064-0.154 0.096-0.319 0.093-0.485 0-0.137-0.041-0.245-0.123-0.325s-0.193-0.121-0.334-0.122c-0.082-0.002-0.164 0.010-0.242 0.036-0.074 0.026-0.144 0.062-0.208 0.107l-0.107-0.13c0.083-0.056 0.174-0.1 0.27-0.13 0.097-0.027 0.197-0.040 0.298-0.038 0.202 0 0.36 0.054 0.472 0.163s0.169 0.256 0.169 0.441c0.001 0.122-0.016 0.243-0.049 0.36-0.034 0.115-0.081 0.225-0.139 0.33-0.088 0.148-0.188 0.288-0.298 0.42l-0.541 0.691v0.014h1.091l0.001 0.155z"></path>
<path fill="#137ecb" style="fill: var(--color1, #137ecb)" d="M45.815 27.412c0 0.43-0.054 0.755-0.162 0.976s-0.269 0.331-0.483 0.33c-0.226 0-0.39-0.102-0.491-0.306s-0.152-0.538-0.152-1.001c0-0.868 0.214-1.302 0.643-1.302 0.222 0 0.385 0.108 0.489 0.323s0.156 0.542 0.156 0.98zM44.732 27.412c0 0.382 0.035 0.668 0.106 0.858s0.181 0.285 0.332 0.286c0.294 0 0.44-0.382 0.44-1.145 0-0.76-0.146-1.14-0.44-1.14-0.151 0-0.262 0.094-0.332 0.281s-0.106 0.474-0.106 0.859z"></path>
<path fill="#137ecb" style="fill: var(--color1, #137ecb)" d="M47.765 28.685h-0.193v-1.867c0-0.152 0.005-0.316 0.016-0.492-0.062 0.064-0.128 0.125-0.197 0.182l-0.251 0.199-0.102-0.11 0.565-0.452h0.161l0.001 2.54z"></path>
<path fill="#137ecb" style="fill: var(--color1, #137ecb)" d="M50.588 28.685h-1.316v-0.136l0.593-0.775c0.182-0.24 0.305-0.432 0.367-0.577 0.064-0.154 0.096-0.319 0.093-0.485 0-0.137-0.041-0.245-0.122-0.325s-0.193-0.121-0.334-0.122c-0.082-0.002-0.164 0.010-0.242 0.036-0.074 0.026-0.144 0.062-0.208 0.107l-0.107-0.131c0.083-0.056 0.174-0.1 0.27-0.13 0.097-0.027 0.197-0.040 0.298-0.038 0.202 0 0.359 0.054 0.472 0.163s0.169 0.256 0.169 0.441c0 0.122-0.016 0.243-0.050 0.36-0.034 0.115-0.080 0.225-0.139 0.33-0.088 0.148-0.188 0.288-0.298 0.42l-0.541 0.691v0.014h1.091l0.002 0.155z"></path>
</symbol>
<symbol id="icon-snow" viewBox="0 0 31 32">
<path d="M30.556 20.678l-3.772 0.64-4.356-2.501 6.427-2.817-6.426-2.818 4.355-2.5 3.772 0.64 0.348-2.027-2.911-0.494 1.025-2.754-1.939-0.714-1.329 3.568-4.355 2.5 0.759-6.942-5.668 4.126v-4.344l2.444-2.929-1.591-1.313-1.887 2.26-1.887-2.26-1.591 1.313 2.444 2.928v4.344l-5.666-4.125 0.759 6.943-4.358-2.501-1.329-3.568-1.939 0.714 1.025 2.754-2.912 0.494 0.348 2.026 3.772-0.64 4.356 2.5-6.425 2.818 6.426 2.816-4.357 2.501-3.772-0.64-0.348 2.026 2.912 0.494-1.026 2.754 1.939 0.714 1.329-3.568 4.357-2.501-0.759 6.942 5.666-4.124v4.344l-2.444 2.928 1.591 1.313 1.887-2.26 1.887 2.26 1.591-1.313-2.445-2.929v-4.344l5.668 4.125-0.759-6.94 4.354 2.5 1.329 3.568 1.939-0.714-1.025-2.756 2.911-0.494-0.348-2.026zM23.729 16.001l-3.52 1.542-2.689-1.542 2.689-1.544 3.52 1.544zM19.592 8.874l-0.417 3.802-2.689 1.544v-3.086l3.105-2.26zM11.316 8.874l3.102 2.258v3.088l-2.686-1.542-0.416-3.803zM7.178 16.001l3.518-1.542 2.689 1.542-2.687 1.542-3.519-1.542zM11.316 23.125l0.416-3.802 2.687-1.542v3.086l-3.103 2.258zM19.592 23.125l-3.106-2.26v-3.084l2.689 1.544 0.417 3.8z"></path>
</symbol>
<symbol id="icon-sun" viewBox="0 0 32 32">
<path d="M15.969 26.489c-0.591 0-1.098 0.507-1.098 1.098v3.253c0 0.591 0.507 1.098 1.098 1.098s1.098-0.507 1.098-1.098v-3.253c0-0.592-0.507-1.098-1.098-1.098z"></path>
<path d="M21.63 10.308c-1.436-1.436-3.464-2.366-5.661-2.366s-4.225 0.887-5.661 2.366c-1.436 1.436-2.366 3.464-2.366 5.661s0.929 4.225 2.366 5.661c1.436 1.436 3.464 2.366 5.661 2.366s4.225-0.887 5.661-2.366c1.436-1.436 2.366-3.464 2.366-5.661s-0.887-4.225-2.366-5.661zM20.11 20.11c-1.056 1.056-2.535 1.69-4.14 1.69s-3.084-0.634-4.14-1.69c-1.056-1.056-1.69-2.535-1.69-4.14s0.634-3.084 1.69-4.14c1.056-1.056 2.535-1.69 4.14-1.69s3.084 0.634 4.14 1.69c1.056 1.056 1.69 2.535 1.69 4.14s-0.634 3.084-1.69 4.14z"></path>
<path d="M30.84 14.871h-3.253c-0.592 0-1.098 0.507-1.098 1.098s0.507 1.098 1.098 1.098h3.253c0.591 0 1.098-0.507 1.098-1.098s-0.507-1.098-1.098-1.098z"></path>
<path d="M15.969 0c-0.591 0-1.098 0.507-1.098 1.098v3.253c0 0.591 0.507 1.098 1.098 1.098s1.098-0.507 1.098-1.098v-3.253c0-0.591-0.507-1.098-1.098-1.098z"></path>
<path d="M27.249 25.728l-2.324-2.324c-0.38-0.422-1.098-0.422-1.521 0s-0.422 1.098 0 1.521l2.324 2.324c0.422 0.422 1.098 0.422 1.521 0s0.422-1.098 0-1.521z"></path>
<path d="M27.291 4.689c-0.422-0.422-1.098-0.422-1.521 0l-2.324 2.324c-0.422 0.422-0.422 1.098 0 1.521 0.38 0.422 1.098 0.422 1.521 0l2.324-2.324c0.422-0.422 0.422-1.098 0-1.521z"></path>
<path d="M8.492 23.405c-0.38-0.422-1.098-0.422-1.521 0l-2.324 2.324c-0.422 0.422-0.422 1.098 0 1.521s1.098 0.422 1.521 0l2.324-2.324c0.422-0.422 0.422-1.098 0-1.521z"></path>
<path d="M4.351 14.871h-3.253c-0.591 0-1.098 0.507-1.098 1.098s0.465 1.098 1.098 1.098h3.253c0.591 0 1.098-0.507 1.098-1.098s-0.507-1.098-1.098-1.098z"></path>
<path d="M8.492 7.013l-2.324-2.324c-0.422-0.422-1.098-0.422-1.521 0s-0.422 1.098 0 1.521l2.324 2.324c0.422 0.422 1.098 0.422 1.521 0s0.422-1.098 0-1.521z"></path>
</symbol>
<symbol id="icon-sad-cart" viewBox="0 0 28 32">
<path d="M19.405 8.888c-0.047-0.055-0.117-0.090-0.195-0.090 0 0 0 0-0 0h-12.723l-0.256-1.421c-0.020-0.11-0.108-0.195-0.219-0.21l-0.001-0-2.048-0.256c-0.010-0.001-0.021-0.002-0.032-0.002-0.143 0-0.258 0.115-0.258 0.258 0 0.131 0.098 0.24 0.225 0.256l0.001 0 1.874 0.233 1.62 9.293c0.021 0.121 0.126 0.212 0.252 0.212 0.001 0 0.003 0 0.004-0h1.377v0.184c-0.573 0.123-0.996 0.625-0.996 1.225 0 0.691 0.56 1.252 1.252 1.252s1.252-0.56 1.252-1.252c0-0.601-0.423-1.103-0.988-1.224l-0.008-0.001v-0.195h6.692v0.184c-0.573 0.123-0.996 0.625-0.996 1.225 0 0.691 0.56 1.252 1.252 1.252s1.252-0.56 1.252-1.252c0-0.601-0.423-1.103-0.988-1.224l-0.008-0.001v-0.184h1.252c0.141 0 0.256-0.115 0.256-0.256s-0.115-0.256-0.256-0.256v0h-10.138l-0.146-0.84h10.537c0.001 0 0.002 0 0.003 0 0.128 0 0.234-0.094 0.253-0.216l0-0.001 0.952-6.49c0.003-0.014 0.004-0.030 0.004-0.046 0-0.060-0.021-0.116-0.056-0.159l0 0.001zM10.015 18.565c0 0.409-0.331 0.74-0.74 0.74s-0.74-0.331-0.74-0.74c0-0.409 0.331-0.74 0.74-0.74v0c0.409 0 0.74 0.331 0.74 0.74v0zM17.224 18.565c0 0.409-0.331 0.74-0.74 0.74s-0.74-0.331-0.74-0.74c0-0.409 0.331-0.74 0.74-0.74v0c0.409 0 0.74 0.331 0.74 0.74v0zM18.028 15.293h-10.406l-1.044-5.983h12.337zM11.446 13.586c-0.141-0-0.255-0.115-0.255-0.256 0-0.033 0.006-0.065 0.018-0.094l-0.001 0.002c0.25-0.623 0.849-1.056 1.549-1.056s1.299 0.432 1.545 1.044l0.004 0.011c0.014 0.031 0.022 0.066 0.022 0.104 0 0.141-0.115 0.256-0.256 0.256-0.112 0-0.207-0.071-0.242-0.171l-0.001-0.002c-0.172-0.431-0.586-0.73-1.070-0.73-0.002 0-0.004 0-0.005 0h0c-0.002 0-0.005-0-0.007-0-0.48 0-0.891 0.298-1.058 0.719l-0.003 0.008c-0.038 0.097-0.131 0.164-0.239 0.164-0.001 0-0.001 0-0.002 0h0zM11.917 11.428c-0.007 0.219-0.187 0.394-0.407 0.394-0.225 0-0.407-0.182-0.407-0.407s0.182-0.407 0.407-0.407c0.004 0 0.007 0 0.011 0h-0.001c0.22 0.006 0.397 0.186 0.397 0.407 0 0.005-0 0.009-0 0.014l0-0.001zM14.41 11.428c-0.007 0.219-0.187 0.394-0.407 0.394-0.225 0-0.407-0.182-0.407-0.407s0.181-0.405 0.404-0.407h0c0.001 0 0.002 0 0.003 0 0.225 0 0.407 0.182 0.407 0.407 0 0.005-0 0.009-0 0.013l0-0.001z"></path>
</symbol>
<symbol id="icon-hamburger" viewBox="0 0 47 32">
<path stroke-linejoin="round" stroke-linecap="round" stroke-miterlimit="4" stroke-width="4.3636" d="M1.961 29.154h42.965M1.961 15.615h42.965M1.961 2.077h42.965"></path>
</symbol>
<symbol id="icon-bicycle" viewBox="0 0 32 32">
<path d="M25.188 12.515c-0.827 0-1.614 0.168-2.33 0.471l0.039-0.015-3.827-7.585h1.049c0.262 0 0.475-0.213 0.475-0.475s-0.213-0.475-0.475-0.475v0h-3.485c-0.262 0-0.475 0.213-0.475 0.475s0.213 0.475 0.475 0.475v0h1.369l2.24 4.436h-9.153c-0.182 0-0.341 0.103-0.42 0.254l-0.001 0.003-1.527 2.912c-0.689-0.298-1.491-0.471-2.334-0.471-3.325 0-6.020 2.695-6.020 6.020s2.695 6.020 6.020 6.020c3.047 0 5.565-2.264 5.965-5.201l0.003-0.031h3.422c0 0 0.001 0 0.001 0 0.184 0 0.343-0.104 0.422-0.257l0.001-0.003 4.144-8.209 1.286 2.535c-1.733 1.077-2.869 2.971-2.869 5.13 0 3.325 2.695 6.020 6.020 6.020s6.020-2.695 6.020-6.020c0-3.325-2.695-6.020-6.020-6.020-0.005 0-0.010 0-0.015 0h0.001zM6.812 23.604c-2.797-0.003-5.063-2.272-5.063-5.069 0-2.8 2.27-5.069 5.069-5.069 0.683 0 1.334 0.135 1.929 0.38l-0.034-0.012-2.512 4.8c-0.034 0.063-0.053 0.139-0.053 0.219 0 0.262 0.212 0.475 0.475 0.475h5.19c-0.396 2.436-2.483 4.273-4.999 4.277h-0zM9.543 14.257c1.37 0.89 2.277 2.393 2.329 4.111l0 0.008h-4.467zM15.902 18.376h-3.080c-0.061-2.086-1.175-3.9-2.826-4.934l-0.025-0.015 1.394-2.655h8.38zM25.188 23.604c-2.788-0.016-5.042-2.279-5.042-5.069 0-1.79 0.928-3.363 2.329-4.265l0.020-0.012 2.348 4.651c0.088 0.102 0.217 0.167 0.361 0.167 0.262 0 0.475-0.213 0.475-0.475 0-0.043-0.006-0.086-0.017-0.125l0.001 0.003-2.335-4.654c0.554-0.227 1.197-0.358 1.871-0.358 2.8 0 5.069 2.27 5.069 5.069s-2.27 5.069-5.069 5.069c-0.004 0-0.008 0-0.012 0h0.001z"></path>
<path d="M8.713 8.554h4.436c0.262 0 0.475-0.213 0.475-0.475s-0.213-0.475-0.475-0.475v0h-4.436c-0.262 0-0.475 0.213-0.475 0.475s0.213 0.475 0.475 0.475v0z"></path>
</symbol>
<symbol id="icon-tool" viewBox="0 0 32 32">
<path stroke-linejoin="round" stroke-linecap="round" stroke-miterlimit="10" stroke-width="2" d="M27.8 28.2v0c-1.3 1.3-3.3 1.3-4.6 0l-6.2-6.2 4.6-4.6 6.2 6.2c1.3 1.2 1.3 3.3 0 4.6z"></path>
<path stroke-linejoin="round" stroke-linecap="round" stroke-miterlimit="10" stroke-width="2" d="M6.2 3.5l-3 3.1 2.3 3.9 3.8 2.3 8.5 8.5 3.1-3.1-8.5-8.5-2.3-3.9z"></path>
<path stroke-linejoin="round" stroke-linecap="butt" stroke-miterlimit="10" stroke-width="2" d="M18.9 16.1l2.7-2.7c1.9 0.7 4.2 0.4 5.7-1.2 1.5-1.5 1.9-3.8 1.2-5.7l-2.6 2.6-2.4-0.6-0.6-2.4 2.6-2.6c-1.9-0.7-4.2-0.4-5.7 1.2-1.5 1.5-1.9 3.8-1.2 5.7l-2.7 2.7"></path>
<path stroke-linejoin="round" stroke-linecap="butt" stroke-miterlimit="10" stroke-width="2" d="M12.7 16.3l-2.3 2.3c-1.9-0.7-4.2-0.4-5.7 1.2-1.5 1.5-1.9 3.8-1.2 5.7l2.6-2.6 2.4 0.6 0.6 2.4-2.6 2.6c1.9 0.7 4.2 0.4 5.7-1.2 1.5-1.5 1.9-3.8 1.2-5.7l2.4-2.4"></path>
</symbol>
</defs>
</svg>
