<svg aria-hidden="true" style="position: absolute; width: 0; height: 0; overflow: hidden;" version="1.1" xmlns="http://www.w3.org/2000/svg" xmlns:xlink="http://www.w3.org/1999/xlink">
<defs>
<symbol id="icon-bicycle" viewBox="0 0 32 32">
<path d="M25.188 12.515c-0.827 0-1.614 0.168-2.33 0.471l0.039-0.015-3.827-7.585h1.049c0.262 0 0.475-0.213 0.475-0.475s-0.213-0.475-0.475-0.475v0h-3.485c-0.262 0-0.475 0.213-0.475 0.475s0.213 0.475 0.475 0.475v0h1.369l2.24 4.436h-9.153c-0.182 0-0.341 0.103-0.42 0.254l-0.001 0.003-1.527 2.912c-0.689-0.298-1.491-0.471-2.334-0.471-3.325 0-6.020 2.695-6.020 6.020s2.695 6.020 6.020 6.020c3.047 0 5.565-2.264 5.965-5.201l0.003-0.031h3.422c0 0 0.001 0 0.001 0 0.184 0 0.343-0.104 0.422-0.257l0.001-0.003 4.144-8.209 1.286 2.535c-1.733 1.077-2.869 2.971-2.869 5.13 0 3.325 2.695 6.020 6.020 6.020s6.020-2.695 6.020-6.020c0-3.325-2.695-6.020-6.020-6.020-0.005 0-0.010 0-0.015 0h0.001zM6.812 23.604c-2.797-0.003-5.063-2.272-5.063-5.069 0-2.8 2.27-5.069 5.069-5.069 0.683 0 1.334 0.135 1.929 0.38l-0.034-0.012-2.512 4.8c-0.034 0.063-0.053 0.139-0.053 0.219 0 0.262 0.212 0.475 0.475 0.475h5.19c-0.396 2.436-2.483 4.273-4.999 4.277h-0zM9.543 14.257c1.37 0.89 2.277 2.393 2.329 4.111l0 0.008h-4.467zM15.902 18.376h-3.080c-0.061-2.086-1.175-3.9-2.826-4.934l-0.025-0.015 1.394-2.655h8.38zM25.188 23.604c-2.788-0.016-5.042-2.279-5.042-5.069 0-1.79 0.928-3.363 2.329-4.265l0.020-0.012 2.348 4.651c0.088 0.102 0.217 0.167 0.361 0.167 0.262 0 0.475-0.213 0.475-0.475 0-0.043-0.006-0.086-0.017-0.125l0.001 0.003-2.335-4.654c0.554-0.227 1.197-0.358 1.871-0.358 2.8 0 5.069 2.27 5.069 5.069s-2.27 5.069-5.069 5.069c-0.004 0-0.008 0-0.012 0h0.001z"></path>
<path d="M8.713 8.554h4.436c0.262 0 0.475-0.213 0.475-0.475s-0.213-0.475-0.475-0.475v0h-4.436c-0.262 0-0.475 0.213-0.475 0.475s0.213 0.475 0.475 0.475v0z"></path>
</symbol>
<symbol id="icon-compass" viewBox="0 0 32 32">
<path d="M16 0c-8.837 0-16 7.163-16 16s7.163 16 16 16 16-7.163 16-16-7.163-16-16-16zM3 16c0-7.18 5.82-13 13-13 3.424 0 6.538 1.325 8.86 3.488l-12.86 5.512-5.512 12.86c-2.164-2.322-3.488-5.436-3.488-8.86zM18.286 18.286l-8.003 3.43 3.43-8.003 4.573 4.573zM16 29c-3.424 0-6.539-1.325-8.86-3.488l12.86-5.512 5.512-12.86c2.164 2.322 3.488 5.436 3.488 8.86 0 7.18-5.82 13-13 13z"></path>
</symbol>
<symbol id="icon-machine" viewBox="0 0 32 32">
<path d="M7.040 11.418h-0.256l1.818 6.963h2.381l-1.971-7.552c-0.563 0.358-1.254 0.589-1.971 0.589z"></path>
<path d="M16.896 5.094c-0.512-0.589-0.819-1.331-0.845-2.15l-6.221 2.458c0.486 0.589 0.794 1.331 0.845 2.15z"></path>
<path d="M20.838 6.221c-0.358 0.128-0.742 0.179-1.152 0.179s-0.794-0.077-1.152-0.179v3.942l-2.56 2.534c-0.282 0.282-0.333 0.717-0.128 1.050l1.306 2.074c0.154 0.256 0.435 0.41 0.717 0.41 0.154 0 0.307-0.051 0.461-0.128 0.384-0.256 0.512-0.768 0.256-1.178l-0.947-1.51 2.022-2.022 2.048 2.022-0.947 1.51c-0.256 0.384-0.128 0.922 0.256 1.178 0.128 0.077 0.282 0.128 0.461 0.128 0.282 0 0.563-0.128 0.717-0.41l1.306-2.074c0.205-0.333 0.154-0.768-0.128-1.050l-2.56-2.534 0-3.942z"></path>
<path d="M9.139 7.757c0 1.159-0.94 2.099-2.099 2.099s-2.099-0.94-2.099-2.099c0-1.159 0.94-2.099 2.099-2.099s2.099 0.94 2.099 2.099z"></path>
<path d="M19.686 4.864c1.152 0 2.099-0.947 2.099-2.099s-0.947-2.099-2.099-2.099c-1.152 0-2.099 0.947-2.099 2.099s0.922 2.099 2.099 2.099z"></path>
<path d="M25.293 19.891h-18.586c-1.408 0-2.534 1.126-2.534 2.534s1.126 2.534 2.534 2.534h18.56c1.408 0 2.534-1.126 2.534-2.534 0.026-1.383-1.126-2.534-2.509-2.534zM6.707 23.603c-0.64 0-1.178-0.538-1.178-1.178 0-0.666 0.538-1.178 1.178-1.178s1.178 0.538 1.178 1.178c0.026 0.64-0.512 1.178-1.178 1.178zM10.445 23.603c-0.666 0-1.178-0.538-1.178-1.178 0-0.666 0.538-1.178 1.178-1.178s1.178 0.538 1.178 1.178c-0.026 0.64-0.538 1.178-1.178 1.178zM14.131 23.603c-0.64 0-1.178-0.538-1.178-1.178 0-0.666 0.538-1.178 1.178-1.178 0.666 0 1.178 0.538 1.178 1.178 0.026 0.64-0.512 1.178-1.178 1.178zM17.869 23.603c-0.64 0-1.178-0.538-1.178-1.178 0-0.666 0.538-1.178 1.178-1.178s1.178 0.538 1.178 1.178-0.538 1.178-1.178 1.178zM21.581 23.603c-0.666 0-1.178-0.538-1.178-1.178 0-0.666 0.538-1.178 1.178-1.178s1.178 0.538 1.178 1.178-0.538 1.178-1.178 1.178zM25.293 23.603c-0.64 0-1.178-0.538-1.178-1.178 0-0.666 0.538-1.178 1.178-1.178s1.178 0.538 1.178 1.178c-0 0.64-0.538 1.178-1.178 1.178z"></path>
</symbol>
<symbol id="icon-repair" viewBox="0 0 32 32">
<path d="M31.342 25.559l-14.392-12.336c0.67-1.259 1.051-2.696 1.051-4.222 0-4.971-4.029-9-9-9-0.909 0-1.787 0.135-2.614 0.386l5.2 5.2c0.778 0.778 0.778 2.051 0 2.828l-3.172 3.172c-0.778 0.778-2.051 0.778-2.828 0l-5.2-5.2c-0.251 0.827-0.386 1.705-0.386 2.614 0 4.971 4.029 9 9 9 1.526 0 2.963-0.38 4.222-1.051l12.336 14.392c0.716 0.835 1.938 0.882 2.716 0.104l3.172-3.172c0.778-0.778 0.731-2-0.104-2.716z"></path>
</symbol>
<symbol id="icon-search" viewBox="0 0 32 32">
<path d="M26 13c0 2.869-0.931 5.519-2.5 7.669l7.913 7.919c0.781 0.781 0.781 2.050 0 2.831s-2.050 0.781-2.831 0l-7.912-7.919c-2.15 1.575-4.8 2.5-7.669 2.5-7.181 0-13-5.819-13-13s5.819-13 13-13 13 5.819 13 13zM13 22c4.971 0 9-4.029 9-9s-4.029-9-9-9v0c-4.971 0-9 4.029-9 9s4.029 9 9 9v0z"></path>
</symbol>
<symbol id="icon-worker" viewBox="0 0 32 32">
<path d="M25.114 23.91l-0.614-2.355c-0.41-1.638-1.766-2.816-3.43-3.046l-1.485-0.23-0.435-1.28c1.178-0.845 2.074-2.099 2.458-3.661 0.41-0.205 1.101-0.768 1.101-2.176 0-1.024-0.179-1.638-0.512-1.971-0.077-0.077-0.179-0.102-0.256-0.179-0.026-0.205-0.051-0.41-0.102-0.614h-1.818c0.102 1.050 0.205 2.176 0.205 2.176 0 0.128 0.102 0.282 0.256 0.282h0.691c0.128 0 0.256-0.614 0.256-0.794h0.154c0.077 0.179 0.128 0.461 0.128 1.101 0 1.152-0.589 1.357-0.666 1.357-0.205 0.051-0.358 0.205-0.384 0.384-0.461 2.406-2.406 4.147-4.71 4.147-2.253 0-4.224-1.741-4.659-4.147-0.051-0.205-0.205-0.358-0.384-0.384-0.077-0.026-0.666-0.205-0.666-1.357 0-0.614 0.077-0.922 0.128-1.101h0.154c0 0.179 0.128 0.794 0.256 0.794h0.691c0.154 0 0.256-0.128 0.256-0.282 0 0 0.077-1.152 0.205-2.176h-1.792c-0.051 0.205-0.077 0.41-0.102 0.614-0.077 0.051-0.179 0.077-0.23 0.154-0.384 0.358-0.538 0.947-0.538 1.997 0 1.408 0.691 1.971 1.101 2.176 0.358 1.562 1.254 2.842 2.458 3.661l-0.435 1.28-1.485 0.205c-1.664 0.23-3.021 1.408-3.43 3.046l-0.614 2.355c-0.077 0.256-0.026 0.538 0.154 0.742 0.154 0.205 0.41 0.307 0.666 0.307h16.589c0.256 0 0.512-0.102 0.666-0.307 0.204-0.205 0.256-0.461 0.179-0.717zM13.286 18.79l0.435-1.28c0.717 0.307 1.485 0.538 2.304 0.538 0.794 0 1.562-0.205 2.278-0.538l0.435 1.28c-1.638 1.178-3.84 1.178-5.453 0z"></path>
<path d="M15.078 10.778c0 0.466-0.378 0.845-0.845 0.845s-0.845-0.378-0.845-0.845c0-0.467 0.378-0.845 0.845-0.845s0.845 0.378 0.845 0.845z"></path>
<path d="M18.611 10.778c0 0.466-0.378 0.845-0.845 0.845s-0.845-0.378-0.845-0.845c0-0.467 0.378-0.845 0.845-0.845s0.845 0.378 0.845 0.845z"></path>
<path d="M16 14.925c0.717 0 1.382-0.256 1.741-0.691 0.128-0.154 0.102-0.358-0.026-0.486-0.154-0.128-0.358-0.102-0.486 0.026-0.461 0.538-1.971 0.538-2.432 0-0.128-0.154-0.333-0.154-0.486-0.026s-0.154 0.333-0.026 0.486c0.333 0.41 0.998 0.691 1.715 0.691z"></path>
<path d="M10.214 7.834h11.571c0.23 0 0.435-0.205 0.435-0.435v-0.461c0-0.461-0.282-0.87-0.691-1.024-0.307-1.869-1.51-3.379-3.174-4.147l-0.461 2.125c-0.051 0.205-0.23 0.333-0.41 0.333h-0.077c-0.23-0.051-0.358-0.282-0.307-0.512l0.538-2.33c-0.102-0.41-0.461-0.717-0.922-0.717h-1.357c-0.435 0-0.794 0.282-0.922 0.691l0.538 2.355c0.051 0.23-0.077 0.435-0.307 0.512h-0.102c-0.205 0-0.358-0.128-0.41-0.333l-0.486-2.125c-1.664 0.768-2.867 2.304-3.174 4.147-0.384 0.179-0.666 0.563-0.666 1.024v0.461c-0.026 0.256 0.153 0.435 0.384 0.435z"></path>
</symbol>
<symbol id="icon-facebook" viewBox="0 0 32 32">
<path d="M21.329 5.313h2.921v-5.088c-0.504-0.069-2.237-0.225-4.256-0.225-4.212 0-7.097 2.649-7.097 7.519v4.481h-4.648v5.688h4.648v14.312h5.699v-14.311h4.46l0.708-5.688h-5.169v-3.919c0.001-1.644 0.444-2.769 2.735-2.769z"></path>
</symbol>
<symbol id="icon-instagram" viewBox="0 0 32 32">
<path d="M31.969 9.408c-0.075-1.7-0.35-2.869-0.744-3.882-0.406-1.075-1.031-2.038-1.85-2.838-0.8-0.813-1.769-1.444-2.832-1.844-1.019-0.394-2.182-0.669-3.882-0.744-1.713-0.081-2.257-0.1-6.601-0.1s-4.888 0.019-6.595 0.094c-1.7 0.075-2.869 0.35-3.882 0.744-1.075 0.406-2.038 1.031-2.838 1.85-0.813 0.8-1.444 1.769-1.844 2.832-0.394 1.019-0.669 2.182-0.744 3.882-0.081 1.713-0.1 2.257-0.1 6.601s0.019 4.888 0.094 6.595c0.075 1.7 0.35 2.869 0.744 3.882 0.406 1.075 1.038 2.038 1.85 2.838 0.8 0.813 1.769 1.444 2.832 1.844 1.019 0.394 2.182 0.669 3.882 0.744 1.706 0.075 2.25 0.094 6.595 0.094s4.888-0.019 6.595-0.094c1.7-0.075 2.869-0.35 3.882-0.744 2.151-0.831 3.851-2.532 4.682-4.682 0.394-1.019 0.669-2.182 0.744-3.882 0.075-1.707 0.094-2.25 0.094-6.595s-0.006-4.888-0.081-6.595zM29.087 22.473c-0.069 1.563-0.331 2.407-0.55 2.969-0.538 1.394-1.644 2.5-3.038 3.038-0.563 0.219-1.413 0.481-2.969 0.55-1.688 0.075-2.194 0.094-6.464 0.094s-4.782-0.019-6.464-0.094c-1.563-0.069-2.407-0.331-2.969-0.55-0.694-0.256-1.325-0.663-1.838-1.194-0.531-0.519-0.938-1.144-1.194-1.838-0.219-0.563-0.481-1.413-0.55-2.969-0.075-1.688-0.094-2.194-0.094-6.464s0.019-4.782 0.094-6.464c0.069-1.563 0.331-2.407 0.55-2.969 0.256-0.694 0.663-1.325 1.2-1.838 0.519-0.531 1.144-0.938 1.838-1.194 0.563-0.219 1.413-0.481 2.969-0.55 1.688-0.075 2.194-0.094 6.464-0.094 4.276 0 4.782 0.019 6.464 0.094 1.563 0.069 2.407 0.331 2.969 0.55 0.694 0.256 1.325 0.662 1.838 1.194 0.531 0.519 0.938 1.144 1.194 1.838 0.219 0.563 0.481 1.413 0.55 2.969 0.075 1.688 0.094 2.194 0.094 6.464s-0.019 4.77-0.094 6.458z"></path>
<path d="M16.059 7.783c-4.538 0-8.22 3.682-8.22 8.22s3.682 8.22 8.22 8.22c4.538 0 8.22-3.682 8.22-8.22s-3.682-8.22-8.22-8.22zM16.059 21.335c-2.944 0-5.332-2.388-5.332-5.332s2.388-5.332 5.332-5.332c2.944 0 5.332 2.388 5.332 5.332s-2.388 5.332-5.332 5.332z"></path>
<path d="M26.524 7.457c0 1.060-0.859 1.919-1.919 1.919s-1.919-0.859-1.919-1.919c0-1.060 0.859-1.919 1.919-1.919s1.919 0.859 1.919 1.919z"></path>
</symbol>
<symbol id="icon-telegram" viewBox="0 0 32 32">
<path d="M26.070 3.996c-0.321 0.023-0.636 0.099-0.933 0.223h-0.004c-0.285 0.113-1.64 0.683-3.7 1.547l-7.382 3.109c-5.297 2.23-10.504 4.426-10.504 4.426l0.062-0.024c0 0-0.359 0.118-0.734 0.375-0.232 0.147-0.431 0.34-0.586 0.567-0.184 0.27-0.332 0.683-0.277 1.11 0.090 0.722 0.558 1.155 0.894 1.394 0.34 0.242 0.664 0.355 0.664 0.355h0.008l4.883 1.645c0.219 0.703 1.488 4.875 1.793 5.836 0.18 0.574 0.355 0.933 0.574 1.207 0.106 0.14 0.23 0.257 0.379 0.351 0.077 0.045 0.16 0.081 0.246 0.106l-0.050-0.012c0.015 0.004 0.027 0.016 0.038 0.020 0.040 0.011 0.067 0.015 0.118 0.023 0.773 0.234 1.394-0.246 1.394-0.246l0.035-0.028 2.883-2.625 4.832 3.707 0.11 0.047c1.007 0.442 2.027 0.196 2.566-0.238 0.543-0.437 0.754-0.996 0.754-0.996l0.035-0.090 3.734-19.129c0.106-0.472 0.133-0.914 0.016-1.343-0.121-0.434-0.399-0.808-0.781-1.047-0.321-0.195-0.692-0.289-1.067-0.27zM25.969 6.046c-0.004 0.063 0.008 0.056-0.020 0.177v0.011l-3.699 18.93c-0.016 0.027-0.043 0.086-0.117 0.145-0.078 0.062-0.14 0.101-0.465-0.028l-5.91-4.531-3.57 3.254 0.75-4.79 9.656-9c0.398-0.37 0.265-0.448 0.265-0.448 0.028-0.454-0.601-0.133-0.601-0.133l-12.176 7.543-0.004-0.020-5.851-1.972c0.010-0.003 0.020-0.008 0.030-0.012l0.032-0.016 0.031-0.011c0 0 5.211-2.196 10.508-4.426 2.652-1.117 5.324-2.242 7.379-3.11 1.219-0.513 2.439-1.023 3.66-1.53 0.082-0.032 0.043-0.032 0.102-0.032v-0.001z"></path>
</symbol>
<symbol id="icon-linkedin" viewBox="0 0 32 32">
<path d="M31.992 32v-0.001h0.008v-11.736c0-5.741-1.236-10.164-7.948-10.164-3.227 0-5.392 1.771-6.276 3.449h-0.093v-2.913h-6.364v21.364h6.627v-10.579c0-2.785 0.528-5.479 3.977-5.479 3.399 0 3.449 3.179 3.449 5.657v10.401h6.62z"></path>
<path d="M0.528 10.636h6.635v21.364h-6.635v-21.364z"></path>
<path d="M3.843 0c-2.121 0-3.843 1.721-3.843 3.843s1.721 3.879 3.843 3.879c2.121 0 3.843-1.757 3.843-3.879-0.001-2.121-1.723-3.843-3.843-3.843v0z"></path>
</symbol>
<symbol id="icon-twitter" viewBox="0 0 32 32">
<path d="M32 6.078c-1.19 0.522-2.458 0.868-3.78 1.036 1.36-0.812 2.398-2.088 2.886-3.626-1.268 0.756-2.668 1.29-4.16 1.588-1.204-1.282-2.92-2.076-4.792-2.076-3.632 0-6.556 2.948-6.556 6.562 0 0.52 0.044 1.020 0.152 1.496-5.454-0.266-10.28-2.88-13.522-6.862-0.566 0.982-0.898 2.106-0.898 3.316 0 2.272 1.17 4.286 2.914 5.452-1.054-0.020-2.088-0.326-2.964-0.808 0 0.020 0 0.046 0 0.072 0 3.188 2.274 5.836 5.256 6.446-0.534 0.146-1.116 0.216-1.72 0.216-0.42 0-0.844-0.024-1.242-0.112 0.85 2.598 3.262 4.508 6.13 4.57-2.232 1.746-5.066 2.798-8.134 2.798-0.538 0-1.054-0.024-1.57-0.090 2.906 1.874 6.35 2.944 10.064 2.944 12.072 0 18.672-10 18.672-18.668 0-0.29-0.010-0.57-0.024-0.848 1.302-0.924 2.396-2.078 3.288-3.406z"></path>
</symbol>
<symbol id="icon-location" viewBox="0 0 32 32">
<path d="M16 0c-5.523 0-10 4.477-10 10 0 10 10 22 10 22s10-12 10-22c0-5.523-4.477-10-10-10zM16 16c-3.314 0-6-2.686-6-6s2.686-6 6-6 6 2.686 6 6-2.686 6-6 6z"></path>
</symbol>
</defs>
</svg>
