<svg aria-hidden="true" style="position: absolute; width: 0; height: 0; overflow: hidden;" version="1.1" xmlns="http://www.w3.org/2000/svg" xmlns:xlink="http://www.w3.org/1999/xlink">
<defs>
<symbol id="icon-bicycle" viewBox="0 0 32 32">
<path d="M25.188 12.515c-0.827 0-1.614 0.168-2.33 0.471l0.039-0.015-3.827-7.585h1.049c0.262 0 0.475-0.213 0.475-0.475s-0.213-0.475-0.475-0.475v0h-3.485c-0.262 0-0.475 0.213-0.475 0.475s0.213 0.475 0.475 0.475v0h1.369l2.24 4.436h-9.153c-0.182 0-0.341 0.103-0.42 0.254l-0.001 0.003-1.527 2.912c-0.689-0.298-1.491-0.471-2.334-0.471-3.325 0-6.020 2.695-6.020 6.020s2.695 6.020 6.020 6.020c3.047 0 5.565-2.264 5.965-5.201l0.003-0.031h3.422c0 0 0.001 0 0.001 0 0.184 0 0.343-0.104 0.422-0.257l0.001-0.003 4.144-8.209 1.286 2.535c-1.733 1.077-2.869 2.971-2.869 5.13 0 3.325 2.695 6.020 6.020 6.020s6.020-2.695 6.020-6.020c0-3.325-2.695-6.020-6.020-6.020-0.005 0-0.010 0-0.015 0h0.001zM6.812 23.604c-2.797-0.003-5.063-2.272-5.063-5.069 0-2.8 2.27-5.069 5.069-5.069 0.683 0 1.334 0.135 1.929 0.38l-0.034-0.012-2.512 4.8c-0.034 0.063-0.053 0.139-0.053 0.219 0 0.262 0.212 0.475 0.475 0.475h5.19c-0.396 2.436-2.483 4.273-4.999 4.277h-0zM9.543 14.257c1.37 0.89 2.277 2.393 2.329 4.111l0 0.008h-4.467zM15.902 18.376h-3.080c-0.061-2.086-1.175-3.9-2.826-4.934l-0.025-0.015 1.394-2.655h8.38zM25.188 23.604c-2.788-0.016-5.042-2.279-5.042-5.069 0-1.79 0.928-3.363 2.329-4.265l0.020-0.012 2.348 4.651c0.088 0.102 0.217 0.167 0.361 0.167 0.262 0 0.475-0.213 0.475-0.475 0-0.043-0.006-0.086-0.017-0.125l0.001 0.003-2.335-4.654c0.554-0.227 1.197-0.358 1.871-0.358 2.8 0 5.069 2.27 5.069 5.069s-2.27 5.069-5.069 5.069c-0.004 0-0.008 0-0.012 0h0.001z"></path>
<path d="M8.713 8.554h4.436c0.262 0 0.475-0.213 0.475-0.475s-0.213-0.475-0.475-0.475v0h-4.436c-0.262 0-0.475 0.213-0.475 0.475s0.213 0.475 0.475 0.475v0z"></path>
</symbol>
<symbol id="icon-compass" viewBox="0 0 32 32">
<path d="M16 0c-8.837 0-16 7.163-16 16s7.163 16 16 16 16-7.163 16-16-7.163-16-16-16zM3 16c0-7.18 5.82-13 13-13 3.424 0 6.538 1.325 8.86 3.488l-12.86 5.512-5.512 12.86c-2.164-2.322-3.488-5.436-3.488-8.86zM18.286 18.286l-8.003 3.43 3.43-8.003 4.573 4.573zM16 29c-3.424 0-6.539-1.325-8.86-3.488l12.86-5.512 5.512-12.86c2.164 2.322 3.488 5.436 3.488 8.86 0 7.18-5.82 13-13 13z"></path>
</symbol>
<symbol id="icon-machine" viewBox="0 0 32 32">
<path d="M7.040 11.418h-0.256l1.818 6.963h2.381l-1.971-7.552c-0.563 0.358-1.254 0.589-1.971 0.589z"></path>
<path d="M16.896 5.094c-0.512-0.589-0.819-1.331-0.845-2.15l-6.221 2.458c0.486 0.589 0.794 1.331 0.845 2.15z"></path>
<path d="M20.838 6.221c-0.358 0.128-0.742 0.179-1.152 0.179s-0.794-0.077-1.152-0.179v3.942l-2.56 2.534c-0.282 0.282-0.333 0.717-0.128 1.050l1.306 2.074c0.154 0.256 0.435 0.41 0.717 0.41 0.154 0 0.307-0.051 0.461-0.128 0.384-0.256 0.512-0.768 0.256-1.178l-0.947-1.51 2.022-2.022 2.048 2.022-0.947 1.51c-0.256 0.384-0.128 0.922 0.256 1.178 0.128 0.077 0.282 0.128 0.461 0.128 0.282 0 0.563-0.128 0.717-0.41l1.306-2.074c0.205-0.333 0.154-0.768-0.128-1.050l-2.56-2.534 0-3.942z"></path>
<path d="M9.139 7.757c0 1.159-0.94 2.099-2.099 2.099s-2.099-0.94-2.099-2.099c0-1.159 0.94-2.099 2.099-2.099s2.099 0.94 2.099 2.099z"></path>
<path d="M19.686 4.864c1.152 0 2.099-0.947 2.099-2.099s-0.947-2.099-2.099-2.099c-1.152 0-2.099 0.947-2.099 2.099s0.922 2.099 2.099 2.099z"></path>
<path d="M25.293 19.891h-18.586c-1.408 0-2.534 1.126-2.534 2.534s1.126 2.534 2.534 2.534h18.56c1.408 0 2.534-1.126 2.534-2.534 0.026-1.383-1.126-2.534-2.509-2.534zM6.707 23.603c-0.64 0-1.178-0.538-1.178-1.178 0-0.666 0.538-1.178 1.178-1.178s1.178 0.538 1.178 1.178c0.026 0.64-0.512 1.178-1.178 1.178zM10.445 23.603c-0.666 0-1.178-0.538-1.178-1.178 0-0.666 0.538-1.178 1.178-1.178s1.178 0.538 1.178 1.178c-0.026 0.64-0.538 1.178-1.178 1.178zM14.131 23.603c-0.64 0-1.178-0.538-1.178-1.178 0-0.666 0.538-1.178 1.178-1.178 0.666 0 1.178 0.538 1.178 1.178 0.026 0.64-0.512 1.178-1.178 1.178zM17.869 23.603c-0.64 0-1.178-0.538-1.178-1.178 0-0.666 0.538-1.178 1.178-1.178s1.178 0.538 1.178 1.178-0.538 1.178-1.178 1.178zM21.581 23.603c-0.666 0-1.178-0.538-1.178-1.178 0-0.666 0.538-1.178 1.178-1.178s1.178 0.538 1.178 1.178-0.538 1.178-1.178 1.178zM25.293 23.603c-0.64 0-1.178-0.538-1.178-1.178 0-0.666 0.538-1.178 1.178-1.178s1.178 0.538 1.178 1.178c-0 0.64-0.538 1.178-1.178 1.178z"></path>
</symbol>
<symbol id="icon-repair" viewBox="0 0 32 32">
<path d="M31.342 25.559l-14.392-12.336c0.67-1.259 1.051-2.696 1.051-4.222 0-4.971-4.029-9-9-9-0.909 0-1.787 0.135-2.614 0.386l5.2 5.2c0.778 0.778 0.778 2.051 0 2.828l-3.172 3.172c-0.778 0.778-2.051 0.778-2.828 0l-5.2-5.2c-0.251 0.827-0.386 1.705-0.386 2.614 0 4.971 4.029 9 9 9 1.526 0 2.963-0.38 4.222-1.051l12.336 14.392c0.716 0.835 1.938 0.882 2.716 0.104l3.172-3.172c0.778-0.778 0.731-2-0.104-2.716z"></path>
</symbol>
<symbol id="icon-search" viewBox="0 0 32 32">
<path d="M26 13c0 2.869-0.931 5.519-2.5 7.669l7.913 7.919c0.781 0.781 0.781 2.050 0 2.831s-2.050 0.781-2.831 0l-7.912-7.919c-2.15 1.575-4.8 2.5-7.669 2.5-7.181 0-13-5.819-13-13s5.819-13 13-13 13 5.819 13 13zM13 22c4.971 0 9-4.029 9-9s-4.029-9-9-9v0c-4.971 0-9 4.029-9 9s4.029 9 9 9v0z"></path>
</symbol>
<symbol id="icon-worker" viewBox="0 0 32 32">
<path d="M25.114 23.91l-0.614-2.355c-0.41-1.638-1.766-2.816-3.43-3.046l-1.485-0.23-0.435-1.28c1.178-0.845 2.074-2.099 2.458-3.661 0.41-0.205 1.101-0.768 1.101-2.176 0-1.024-0.179-1.638-0.512-1.971-0.077-0.077-0.179-0.102-0.256-0.179-0.026-0.205-0.051-0.41-0.102-0.614h-1.818c0.102 1.050 0.205 2.176 0.205 2.176 0 0.128 0.102 0.282 0.256 0.282h0.691c0.128 0 0.256-0.614 0.256-0.794h0.154c0.077 0.179 0.128 0.461 0.128 1.101 0 1.152-0.589 1.357-0.666 1.357-0.205 0.051-0.358 0.205-0.384 0.384-0.461 2.406-2.406 4.147-4.71 4.147-2.253 0-4.224-1.741-4.659-4.147-0.051-0.205-0.205-0.358-0.384-0.384-0.077-0.026-0.666-0.205-0.666-1.357 0-0.614 0.077-0.922 0.128-1.101h0.154c0 0.179 0.128 0.794 0.256 0.794h0.691c0.154 0 0.256-0.128 0.256-0.282 0 0 0.077-1.152 0.205-2.176h-1.792c-0.051 0.205-0.077 0.41-0.102 0.614-0.077 0.051-0.179 0.077-0.23 0.154-0.384 0.358-0.538 0.947-0.538 1.997 0 1.408 0.691 1.971 1.101 2.176 0.358 1.562 1.254 2.842 2.458 3.661l-0.435 1.28-1.485 0.205c-1.664 0.23-3.021 1.408-3.43 3.046l-0.614 2.355c-0.077 0.256-0.026 0.538 0.154 0.742 0.154 0.205 0.41 0.307 0.666 0.307h16.589c0.256 0 0.512-0.102 0.666-0.307 0.204-0.205 0.256-0.461 0.179-0.717zM13.286 18.79l0.435-1.28c0.717 0.307 1.485 0.538 2.304 0.538 0.794 0 1.562-0.205 2.278-0.538l0.435 1.28c-1.638 1.178-3.84 1.178-5.453 0z"></path>
<path d="M15.078 10.778c0 0.466-0.378 0.845-0.845 0.845s-0.845-0.378-0.845-0.845c0-0.467 0.378-0.845 0.845-0.845s0.845 0.378 0.845 0.845z"></path>
<path d="M18.611 10.778c0 0.466-0.378 0.845-0.845 0.845s-0.845-0.378-0.845-0.845c0-0.467 0.378-0.845 0.845-0.845s0.845 0.378 0.845 0.845z"></path>
<path d="M16 14.925c0.717 0 1.382-0.256 1.741-0.691 0.128-0.154 0.102-0.358-0.026-0.486-0.154-0.128-0.358-0.102-0.486 0.026-0.461 0.538-1.971 0.538-2.432 0-0.128-0.154-0.333-0.154-0.486-0.026s-0.154 0.333-0.026 0.486c0.333 0.41 0.998 0.691 1.715 0.691z"></path>
<path d="M10.214 7.834h11.571c0.23 0 0.435-0.205 0.435-0.435v-0.461c0-0.461-0.282-0.87-0.691-1.024-0.307-1.869-1.51-3.379-3.174-4.147l-0.461 2.125c-0.051 0.205-0.23 0.333-0.41 0.333h-0.077c-0.23-0.051-0.358-0.282-0.307-0.512l0.538-2.33c-0.102-0.41-0.461-0.717-0.922-0.717h-1.357c-0.435 0-0.794 0.282-0.922 0.691l0.538 2.355c0.051 0.23-0.077 0.435-0.307 0.512h-0.102c-0.205 0-0.358-0.128-0.41-0.333l-0.486-2.125c-1.664 0.768-2.867 2.304-3.174 4.147-0.384 0.179-0.666 0.563-0.666 1.024v0.461c-0.026 0.256 0.153 0.435 0.384 0.435z"></path>
</symbol>
<symbol id="icon-facebook" viewBox="0 0 32 32">
<path d="M21.329 5.313h2.921v-5.088c-0.504-0.069-2.237-0.225-4.256-0.225-4.212 0-7.097 2.649-7.097 7.519v4.481h-4.648v5.688h4.648v14.312h5.699v-14.311h4.46l0.708-5.688h-5.169v-3.919c0.001-1.644 0.444-2.769 2.735-2.769z"></path>
</symbol>
<symbol id="icon-instagram" viewBox="0 0 32 32">
<path d="M31.969 9.408c-0.075-1.7-0.35-2.869-0.744-3.882-0.406-1.075-1.031-2.038-1.85-2.838-0.8-0.813-1.769-1.444-2.832-1.844-1.019-0.394-2.182-0.669-3.882-0.744-1.713-0.081-2.257-0.1-6.601-0.1s-4.888 0.019-6.595 0.094c-1.7 0.075-2.869 0.35-3.882 0.744-1.075 0.406-2.038 1.031-2.838 1.85-0.813 0.8-1.444 1.769-1.844 2.832-0.394 1.019-0.669 2.182-0.744 3.882-0.081 1.713-0.1 2.257-0.1 6.601s0.019 4.888 0.094 6.595c0.075 1.7 0.35 2.869 0.744 3.882 0.406 1.075 1.038 2.038 1.85 2.838 0.8 0.813 1.769 1.444 2.832 1.844 1.019 0.394 2.182 0.669 3.882 0.744 1.706 0.075 2.25 0.094 6.595 0.094s4.888-0.019 6.595-0.094c1.7-0.075 2.869-0.35 3.882-0.744 2.151-0.831 3.851-2.532 4.682-4.682 0.394-1.019 0.669-2.182 0.744-3.882 0.075-1.707 0.094-2.25 0.094-6.595s-0.006-4.888-0.081-6.595zM29.087 22.473c-0.069 1.563-0.331 2.407-0.55 2.969-0.538 1.394-1.644 2.5-3.038 3.038-0.563 0.219-1.413 0.481-2.969 0.55-1.688 0.075-2.194 0.094-6.464 0.094s-4.782-0.019-6.464-0.094c-1.563-0.069-2.407-0.331-2.969-0.55-0.694-0.256-1.325-0.663-1.838-1.194-0.531-0.519-0.938-1.144-1.194-1.838-0.219-0.563-0.481-1.413-0.55-2.969-0.075-1.688-0.094-2.194-0.094-6.464s0.019-4.782 0.094-6.464c0.069-1.563 0.331-2.407 0.55-2.969 0.256-0.694 0.663-1.325 1.2-1.838 0.519-0.531 1.144-0.938 1.838-1.194 0.563-0.219 1.413-0.481 2.969-0.55 1.688-0.075 2.194-0.094 6.464-0.094 4.276 0 4.782 0.019 6.464 0.094 1.563 0.069 2.407 0.331 2.969 0.55 0.694 0.256 1.325 0.662 1.838 1.194 0.531 0.519 0.938 1.144 1.194 1.838 0.219 0.563 0.481 1.413 0.55 2.969 0.075 1.688 0.094 2.194 0.094 6.464s-0.019 4.77-0.094 6.458z"></path>
<path d="M16.059 7.783c-4.538 0-8.22 3.682-8.22 8.22s3.682 8.22 8.22 8.22c4.538 0 8.22-3.682 8.22-8.22s-3.682-8.22-8.22-8.22zM16.059 21.335c-2.944 0-5.332-2.388-5.332-5.332s2.388-5.332 5.332-5.332c2.944 0 5.332 2.388 5.332 5.332s-2.388 5.332-5.332 5.332z"></path>
<path d="M26.524 7.457c0 1.060-0.859 1.919-1.919 1.919s-1.919-0.859-1.919-1.919c0-1.060 0.859-1.919 1.919-1.919s1.919 0.859 1.919 1.919z"></path>
</symbol>
<symbol id="icon-telegram" viewBox="0 0 34 32">
<path d="M31.246 1.679c-0.406 0.030-0.804 0.125-1.179 0.282h-0.005c-0.36 0.143-2.072 0.863-4.674 1.954l-9.325 3.927c-6.691 2.817-13.268 5.591-13.268 5.591l0.078-0.030c0 0-0.453 0.149-0.927 0.474-0.293 0.186-0.544 0.43-0.74 0.716-0.232 0.341-0.419 0.863-0.35 1.402 0.114 0.912 0.705 1.459 1.129 1.761 0.429 0.306 0.839 0.448 0.839 0.448h0.010l6.168 2.078c0.277 0.888 1.88 6.158 2.265 7.372 0.227 0.725 0.448 1.178 0.725 1.525 0.134 0.177 0.291 0.325 0.479 0.443 0.098 0.057 0.202 0.102 0.311 0.134l-0.063-0.015c0.019 0.005 0.034 0.020 0.048 0.025 0.051 0.014 0.085 0.019 0.149 0.029 0.976 0.296 1.761-0.311 1.761-0.311l0.044-0.035 3.642-3.316 6.104 4.682 0.139 0.059c1.272 0.558 2.561 0.248 3.241-0.301 0.686-0.552 0.952-1.258 0.952-1.258l0.044-0.114 4.717-24.163c0.134-0.596 0.168-1.155 0.020-1.696-0.152-0.548-0.504-1.020-0.987-1.323-0.405-0.246-0.874-0.365-1.348-0.341zM31.119 4.268c-0.005 0.080 0.010 0.071-0.025 0.224v0.014l-4.672 23.912c-0.020 0.034-0.054 0.109-0.148 0.183-0.099 0.078-0.177 0.128-0.587-0.035l-7.465-5.723-4.51 4.11 0.947-6.051 12.197-11.368c0.503-0.467 0.335-0.566 0.335-0.566 0.035-0.573-0.759-0.168-0.759-0.168l-15.38 9.528-0.005-0.025-7.391-2.491c0.013-0.004 0.026-0.009 0.038-0.015l0.040-0.020 0.039-0.014c0 0 6.582-2.774 13.273-5.591 3.35-1.411 6.725-2.832 9.321-3.928 1.54-0.648 3.081-1.292 4.623-1.933 0.104-0.040 0.054-0.040 0.129-0.040v-0.001z"></path>
</symbol>
<symbol id="icon-location" viewBox="0 0 32 32">
<path d="M16 0c-5.523 0-10 4.477-10 10 0 10 10 22 10 22s10-12 10-22c0-5.523-4.477-10-10-10zM16 16c-3.314 0-6-2.686-6-6s2.686-6 6-6 6 2.686 6 6-2.686 6-6 6z"></path>
</symbol>
<symbol id="icon-youtube" viewBox="0 0 32 32">
<path d="M31.681 9.6c0 0-0.313-2.206-1.275-3.175-1.219-1.275-2.581-1.281-3.206-1.356-4.475-0.325-11.194-0.325-11.194-0.325h-0.012c0 0-6.719 0-11.194 0.325-0.625 0.075-1.987 0.081-3.206 1.356-0.963 0.969-1.269 3.175-1.269 3.175s-0.319 2.588-0.319 5.181v2.425c0 2.587 0.319 5.181 0.319 5.181s0.313 2.206 1.269 3.175c1.219 1.275 2.819 1.231 3.531 1.369 2.563 0.244 10.881 0.319 10.881 0.319s6.725-0.012 11.2-0.331c0.625-0.075 1.988-0.081 3.206-1.356 0.962-0.969 1.275-3.175 1.275-3.175s0.319-2.587 0.319-5.181v-2.425c-0.006-2.588-0.325-5.181-0.325-5.181zM12.694 20.15v-8.994l8.644 4.513-8.644 4.481z"></path>
</symbol>
<symbol id="icon-closeCross" viewBox="0 0 32 32">
<path d="M2.901 0.844c-0.866 0.324-1.799 1.28-2.076 2.132-0.149 0.46-0.092 1.028 0.16 1.543 0.197 0.405 0.311 0.524 5.728 5.948l5.525 5.532-5.525 5.532c-5.454 5.461-5.529 5.54-5.733 5.957-0.197 0.407-0.206 0.446-0.206 0.96 0 0.501 0.012 0.56 0.176 0.887 0.354 0.704 1.010 1.36 1.714 1.714 0.327 0.164 0.386 0.176 0.887 0.176 0.514 0 0.553-0.009 0.96-0.206 0.418-0.204 0.496-0.279 5.957-5.733l5.532-5.525 5.532 5.525c5.461 5.454 5.54 5.529 5.957 5.733 0.407 0.197 0.446 0.206 0.96 0.206 0.501 0 0.56-0.012 0.887-0.176 0.453-0.228 0.939-0.622 1.273-1.035 0.146-0.18 0.343-0.485 0.441-0.679 0.164-0.327 0.176-0.386 0.176-0.887 0-0.514-0.009-0.553-0.206-0.96-0.204-0.418-0.279-0.496-5.733-5.957l-5.525-5.532 5.525-5.532c5.454-5.461 5.529-5.54 5.733-5.957 0.197-0.407 0.206-0.446 0.206-0.96 0-0.501-0.012-0.56-0.176-0.887-0.354-0.704-1.010-1.36-1.714-1.714-0.327-0.164-0.386-0.176-0.887-0.176-0.514 0-0.553 0.009-0.96 0.206-0.418 0.204-0.496 0.279-5.957 5.733l-5.532 5.525-5.532-5.525c-5.438-5.429-5.541-5.531-5.952-5.73-0.37-0.18-0.473-0.206-0.88-0.222-0.356-0.012-0.526 0.007-0.734 0.084z"></path>
</symbol>
</defs>
</svg>
